/* XPM */
static char *_32ca06214704b5f9528423e051bbf31jA6aOKt6Ynf5aeOy[] = {
/* columns rows colors chars-per-pixel */
"42 42 79 1 ",
"  c #E4A672",
". c #E3A570",
"X c #DF9E67",
"o c #DA945A",
"O c #D99359",
"+ c #DC985F",
"@ c #E2A36E",
"# c #E3A470",
"$ c #E4A571",
"% c #E3A46F",
"& c #DE9B63",
"* c #E2A26D",
"= c #DD9A61",
"- c #DA955C",
"; c #D69058",
": c #D68F58",
"> c #D7925A",
", c #DC9960",
"< c #E0A069",
"1 c #E1A16C",
"2 c #DD9961",
"3 c #D8935B",
"4 c #DA965F",
"5 c #D38D57",
"6 c #CA8355",
"7 c #BF7752",
"8 c #BE7652",
"9 c #C47C53",
"0 c #D18A56",
"q c #D28B57",
"w c #D8925B",
"e c #DB975E",
"r c #D9945C",
"t c #D38C57",
"y c #C77F54",
"u c #DC9861",
"i c #CD8656",
"p c #BF7652",
"a c #BA7251",
"s c #B86F50",
"d c #B97050",
"f c #BC7351",
"g c #BD7451",
"h c #C88054",
"j c #CF8856",
"k c #CB8355",
"l c #BE7552",
"z c #BA7151",
"x c #D8925C",
"c c #D89259",
"v c #CB8456",
"b c #BB7251",
"n c #C07852",
"m c #B86E50",
"M c #B76E50",
"N c #D9955F",
"B c #C78055",
"V c #D7935D",
"C c #BE7551",
"Z c #DF9E69",
"A c #CC8558",
"S c #E4A570",
"D c #D48F5C",
"F c #BC7451",
"G c #CF895A",
"H c #DA9660",
"J c #D8945E",
"K c #DC9962",
"L c #CB8457",
"P c #BA7250",
"I c #D69059",
"U c #C17953",
"Y c #DE9C66",
"T c #CF8959",
"R c #BB7351",
"E c #DA9661",
"W c #E1A26D",
"Q c #D28D5D",
"! c white",
/* pixels */
"   .XoOOO+@#$   #%&OOOO&%#   $#@+OOOoX.   ",
"  *=-;:::>+,<..12+3::::3+21..<,+>:::;-=*  ",
" *456788890qweertqy8888yqtreewq098887654* ",
".uipassssdfghjjklfzsssszflkjjhgfdssssapiu.",
"XxpsssssssssddddssssssssssddddssssssssspxX",
"cvbssssssssssssssssssssssssssssssssssssbvc",
";nmssssssssssssssssssssssssssssssssssssmn;",
";nMssssssssssssssssssssssssssssssssssssMn;",
":nMssssssssssssssssssssssssssssssssssssMn:",
"NBdssssssssssssssssssssssssssssssssssssdBN",
"@VCssssssssssssssssssssssssssssssssssssCV@",
"#N7ssssssssssssssssssssssssssssssssssss7N#",
"$ZAbssssssssssssssssssssssssssssssssssbAZ$",
" SDFssssssssssssssssssssssssssssssssssFDS ",
" SDFssssssssssssssssssssssssssssssssssFDS ",
" 1GbssssssssssssssssssssssssssssssssssbG1 ",
".HnssssssssssssssssssssssssssssssssssssnH.",
"%JCssssssssssssssssssssssssssssssssssssCJ%",
"KLPssssssssssssssssssssssssssssssssssssPLK",
";nMssssssssssssssssssssssssssssssssssssMn;",
";nMssssssssssssssssssssssssssssssssssssMn;",
";nMssssssssssssssssssssssssssssssssssssMn;",
";nMssssssssssssssssssssssssssssssssssssMn;",
"KLPssssssssssssssssssssssssssssssssssssPLK",
"%JCssssssssssssssssssssssssssssssssssssCJ%",
".HnssssssssssssssssssssssssssssssssssssnH.",
" 1GbssssssssssssssssssssssssssssssssssbG1 ",
" SDFssssssssssssssssssssssssssssssssssFDS ",
" SDFssssssssssssssssssssssssssssssssssFDS ",
"$ZAbssssssssssssssssssssssssssssssssssbAZ$",
"#N7ssssssssssssssssssssssssssssssssssss7N#",
"@VCssssssssssssssssssssssssssssssssssssCV@",
"NBdssssssssssssssssssssssssssssssssssssdBN",
":nMssssssssssssssssssssssssssssssssssssMn:",
";nMssssssssssssssssssssssssssssssssssssMn;",
";nMssssssssssssssssssssssssssssssssssssMn;",
"IUssssssssssssssssssssssssssssssssssssssUI",
"YTRssssssssssssssssssssssssssssssssssssRTY",
".EUsssssssssbFFbssssssssssbFFbsssssssssUE.",
" WQURsMMMdC7ADDGnCPMMMMPCnGDDA7CdMMMsRUQW ",
"  WETUnnnBVNZSS1HJLnnnnLJH1SSZNVBnnnUTEW  ",
"   .YI;;:N@#$   .%K;;;;K%.   $#@N:;;IY.   "
};
