/* XPM */
static char *_66dd3e2cad0427dfb1333f8d2101714x8SvYGANVBLa3XiD[] = {
/* columns rows colors chars-per-pixel */
"64 64 185 2 ",
"   c black",
".  c #140E39",
"X  c #220E2D",
"o  c #5C0A1B",
"O  c #6F2D0E",
"+  c #5D1B23",
"@  c #52212A",
"#  c #652727",
"$  c #6D2220",
"%  c #772623",
"&  c #782B23",
"*  c #000D41",
"=  c #112453",
"-  c #152756",
";  c #182B57",
":  c #25335A",
">  c #1B3D72",
",  c #223562",
"<  c #243661",
"1  c #2F4169",
"2  c #28406F",
"3  c #314168",
"4  c #3C4D75",
"5  c #364A7B",
"6  c #B4250D",
"7  c #832E22",
"8  c #913322",
"9  c #C52F00",
"0  c #CD3009",
"q  c #E73E07",
"w  c #E83A0A",
"e  c #DC4703",
"r  c #FF5300",
"t  c #FF5600",
"y  c #C66D1B",
"u  c #D77611",
"i  c #FF6300",
"p  c #E87417",
"a  c #FB6C38",
"s  c #AA5048",
"d  c #DC614F",
"f  c #679175",
"g  c #72A067",
"h  c #79A863",
"j  c #FF931B",
"k  c #93B04E",
"l  c #9BB94E",
"z  c #BDB65A",
"x  c #BFBA5B",
"c  c #FF9A4E",
"v  c #FD9E63",
"b  c #345CA3",
"n  c #45618A",
"m  c #4A6188",
"M  c #566486",
"N  c #5A6785",
"B  c #5B6A87",
"V  c #5A6B8F",
"C  c #5A6B91",
"Z  c #56729D",
"A  c #657697",
"S  c #737EA4",
"D  c #7689A5",
"F  c #7E8AA3",
"G  c #7F8BA4",
"H  c #7488A8",
"J  c #818BA3",
"K  c #878DA0",
"L  c #848EA6",
"P  c #8293AE",
"I  c #999FAB",
"U  c #829AB5",
"Y  c #899BB5",
"T  c #8D9FB5",
"R  c #8C9FB8",
"E  c #8FA3BC",
"W  c #95A0B5",
"Q  c #9DA3B1",
"!  c #9DA2B7",
"~  c #9DA4B4",
"^  c #91A2BA",
"/  c #9BA9BB",
"(  c #ABAEB7",
")  c #A7AFBE",
"_  c #A9B1BE",
"`  c #B4B4B5",
"'  c #85A0C6",
"]  c #89A3C2",
"[  c #8BA9C8",
"{  c #96ADC6",
"}  c #9DAEC7",
"|  c #90A9C9",
" . c #9DAFC9",
".. c #9EB1CB",
"X. c #A1B1C6",
"o. c #A6B4C5",
"O. c #A8B2C2",
"+. c #ACB7C7",
"@. c #A0B3CC",
"#. c #A4B7CE",
"$. c #B9BBC3",
"%. c #B0B9CB",
"&. c #B5BBCA",
"*. c #A7BBD2",
"=. c #A2BAD6",
"-. c #ADBED1",
";. c #BFC0C7",
":. c #BDC0C9",
">. c #AFC1D3",
",. c #AEC1D5",
"<. c #B5C1D0",
"1. c #B2C4D4",
"2. c #B7C6D5",
"3. c #B8C3D0",
"4. c #BCC4D0",
"5. c #B4C6D9",
"6. c #B3C6DC",
"7. c #B4C8DB",
"8. c #B3C8DD",
"9. c #B4C8DE",
"0. c #BACBDC",
"q. c #A6CDEF",
"w. c #B8CDE3",
"e. c #BDCDE0",
"r. c #C6CACF",
"t. c #CACCCF",
"y. c #C0C5D0",
"u. c #C3C7D4",
"i. c #C5C9D5",
"p. c #C6D2DF",
"a. c #C8D4DD",
"s. c #C0CFE3",
"d. c #C3D3E1",
"f. c #C6D6E3",
"g. c #CAD8E3",
"h. c #C9D8E4",
"j. c #CED8E4",
"k. c #D1DBE3",
"l. c #D6DEE3",
"z. c #D3DFE5",
"x. c #DDDFE2",
"c. c #D4DFE9",
"v. c #D0DFF0",
"b. c #D0E0E7",
"n. c #DCE1E7",
"m. c #D0E2EB",
"M. c #D2E0ED",
"N. c #DFE4EC",
"B. c #DEECF3",
"V. c #E2E3E0",
"C. c #E3E4E3",
"Z. c #E0E2E7",
"A. c #E7EBEC",
"S. c #E7EDEE",
"D. c #EEEDE9",
"F. c #EBEDEC",
"G. c #F8F3EC",
"H. c #E3EAF0",
"J. c #E3ECF3",
"K. c #E8EDF1",
"L. c #E7F0F1",
"P. c #EAF3F5",
"I. c #EFF3F4",
"U. c #EEF4F7",
"Y. c #E5F6FF",
"T. c #EBF5FC",
"R. c #F6F0F0",
"E. c #F2F5F3",
"W. c #F1F2F4",
"Q. c #F3F5F4",
"!. c #F4F6F7",
"~. c #F7FAF2",
"^. c #F5FAF7",
"/. c #F9FAF3",
"(. c #FAFCF3",
"). c #FAFBF5",
"_. c #FAFCF6",
"`. c #FFFFF4",
"'. c #FFFFF7",
"]. c #F5F8FB",
"[. c #F4F9FD",
"{. c #FAFBFA",
"}. c #FCFFFB",
"|. c #F8FFFF",
" X c white",
/* pixels */
"l l l l l l l l l l l h h h h h h h h h h h h h h h l l l l l l l l l l l l l l l l l l l l l l l l l l l l l h h h h h h h h h ",
"l l x x x l l l l l l l l l l l l h h h h h h h h h h h h h h h h h l l l l l l l l l l l l x x x l l l l l l l l l l l l h h h ",
"l l x x x x l l l l l l l = = = = = = = = = = h h h h h h h h x x h l l l l l l l l l l l l x x x x l l l l l l l l h h h h h l ",
"x x x l l x x x x l l l l = = = = = = = = = = h l l l l x l l x x x x l l l l l l l l l x x x l l x x x l l l l l l l l l l l l ",
"l l l l l l x x x l l = = = =  X X X X;.;.;.;.= = l x x x x x x x x x l l l l l l l l l l l l l l l x x x l l l l l l l l l l l ",
"l l l l l l l l l l l = = = =  X X X X;.;.;.;.= = h h h h h h h h h x x x x x x x h h l l l l l l l l l l l l l l l l l l l l l ",
"h h l l l l l l l = = = =  X X X X         X X;.;.= = h l h h h h h h h h h h h h h h h h h l l l l l l l l l l l l l l l l l l ",
"h h h h h h h h h = = = =  X X X X         X X;.;.= = l l l h h h h h h h h h h h h h h h h h h h h h h l l l l l l l l l l l l ",
"h h l l l l l = = = = c c c c  X X         X X X X= = l l l l l l h h l l h h h h h h h h h l l l l l l l l l l l l l l l l l l ",
"l l l l l l l = = = = c c c c  X X         X X X X= = l l x x l l h l l l l h l l h l l l l l l l l l l l l l l l l l f f f f l ",
"x x x l l b b = = c c j j i i  X X X X X X X X X X= = l x x x x x h h l l l l l l l l l x x x l l l l l l l l l l f f x x f f f ",
"x x x l l b b = = c c j j i i  X X X X X X X X X X= = l x x x x x x l l l l l l x x x x x x x l l l f f f f l f f f f x x x x f ",
"x l l y y c c c c t t t t t t v v  X X X X X X X X= = x x x x x x x x l l l x x x x x x x l l f l f f x f f f f x f f x x x x x ",
"l l f y y c c c c t t t t t t v v  X X X X X X X X= = x x x x x x x x l l l l l l l l l l l f f f f x x x f f x x x x x x x x x ",
"x f f O O y y t t t t t t t t t t  X X X X}.}. X X= = x x h h h x x x x x x l l l l l l x f f x x x x x x x x x x x x x x h h h ",
"x x x O O y y t t t t t t t t t t  X X X X}.}. X X= = l h h h h x x x x l l l l l l x x x x x x x x l l x x x x l l l x x h h h ",
"x x x x l o o o o s s s s s s ! !  X X X X X X X X= = h h h h h h l l l l l l l x x l l x x x x l l l l l x x l l h h h h h h h ",
"l x x l l o o o o s s s s s s ! !  X X X X X X X X= = h l l h h h l l l l l l x x l l l l x x l l l l l l l l l l h h h h h h h ",
"l l l l l l l l l = = = = J J q.q. X X X X X X X X= = h l l l h h h h l l l l l l l l l l l l l l l l l l l l h h h h h h h h h ",
"l l l l l l l l l = = = = J J q.q. X X X X X X X X= = h l l l l l l l l l l l l h h l l l l l l l l l l l h h h h l l l l h l l ",
"l l l l l l l l l l l h h = = = =  X X X X X X X X= = h l l l l l l l l l l l h h h h l l l l l l l l l l l l h h l l l l l l l ",
"l l l l l l x x x l l l x = = = =  X X X X X X X X= = l l l l l l l h h h h h h h h h l l l l l l l x x x l l l x x x l l l l l ",
"h l l l l x x x x x x x x x x = =  X X X X X X X X= = l l l l l l h h h h = = = = h h h h l l l l x x x x x x x x x x x l l l l ",
"h h h l l l x x x x x x x h h = =  X X X X X X X X= = h h h h h h h h h h = = = = h h h h h h l l l x x x x x x x h h h h h h h ",
"h l l l l l l x x x x l h h l = =  X X X X X X X X= = h h h h f f h h = = Y Y Y Y = = h h l l l l l l x x x x l h h l l h h h h ",
"l l l x x x x x x x x l l l l = =  X X X X X X X X= = f f h f f f f f = = Y Y Y Y = = f l l l x x x x x x x x l l l l h h h h h ",
"l l x x x x x x x x l l l l l = =  X X X X X X X X= = f f f f f f = = #.#.#.#.Y Y Y Y = = l x x x x x x x x l l l l l l l h h h ",
"x x l l l l l x x x x x x l l = =  X X X X X X X X= = f x x x x x = = #.#.#.#.Y Y Y Y = = x l l l l l x x x x x x l l l l l l l ",
"x x l l l l l l l x x x x l l = =  X X}.}.}.}. X X= = x x = = = = #.#.v.v.v.v.s.s.V V V V = = = = = = l x x x x x l l l l l l l ",
"x x x x l l l l l x x l l x l = =  X X}.}.}.}. X X= = x x = = = = #.#.v.v.v.v.s.s.V V V V = = = = = = l l x x l l x l l l l l l ",
"x x x x x l l x x l l l l l l = =  X X^.^.'.'. X X= = = = = = = = = = = = = = = = = = = = = = K K Z.Z.= = = = = = l l l l l l l ",
"x x x x x l x x x x l l l l l = =  X X^.^.'.'. X X= = = = = = = = = = = = = = = = = = = = = = K K Z.Z.= = = = = = l l l l l l l ",
"x l l x x x x x x l l l l l l = =  X X).).(._._._.Q.Q.) ) I I $.$.t.t.C.C.F.F.r.r.( ( ` ` x.x. X XF.F.< < V.V.:.:.= = k k l l l ",
"l l l l l l l l l l l h h h h = =  X X).).(._._._.Q.!.) ) I I $.$.t.t.C.C.F.F.r.r.( ( ` ` x.x. X XF.F.< < V.V.:.:.= = k k l l l ",
"l l l l l l l l l h h g g = = o.o. X X'.'.).)././.b.b.[.[.3.3.= = W.W.}.}.'.'. X X|.|.B.B.z.z.4.4.1 1 3 3 _ _  X X&.&.* * h h h ",
"l l l l l l l l h h h g g = = o.o. X X'.'.).)././.b.b.[.[.3.3.= = W.W.}.}.'.'. X X|.|.B.B.z.z.4.4.1 1 3 3 _ _  X X&.&.* * h h h ",
"l l h l l h h h h h l = = U.U.U.U.'.'.(.(.^.~.z.z.T.T.u.u.= = %.%.}.}././.~.~././.'.'.a.a.e.e.M M O.O.Q Q N N {.{.L L = = l l h ",
"h h h h l l l l l l l = = U.U.U.U.'.'.(.(.^.^.z.z.T.T.u.u.= = %.%.}.}././.~.~././.'.'.a.a.e.e.M M O.O.Q Q N N {.{.L L = = l l l ",
"h h h l l l l l l l l = = {.{.{.{.'.'.~.~.^.^.P.P.y.y.= = i.i. X X~.~.~.~._._.'.'.~.~.2.2.#.#.H.H.W W - - D.D.+.+.= = = = l l f ",
"l l l l l l l l l f f = = {.{.{.{.'.'.~.~.^.^.P.P.y.y.= = i.i. X X~.~.~.~._.(.'.'.~.~.2.2.#.#.H.H.W W - - D.D.+.+.= = = = x x x ",
"l l l l l l f f f x x = = P.P.P.P.}.}.~.~.).). X X= = D D  X X}.}.'.'._._.E.E.^.^. X Xl.l.-.-.c.c.F F ; ; n.n.= = = = f x x x x ",
"h l l l f f f x x x x = = P.P.P.P.}.}.~.~.).). X X= = D D  X X}.}.'.'._._.E.E.^.~. X Xl.l.-.-.c.c.F F ; ; n.n.= = = = x x x x x ",
"h h h x f x x x x x x = = f.f.f.f.Q.Q.}.}.'.'. X X= = n n Y.Y.I.I.F.F.E.E.A.A.Q.E.j.j.o.o.J.J.H.H.F F A A +.+.= = x x x x x x h ",
"x x x l l l l x x h h = = f.f.f.f.Q.Q.}.}.'.'. X X= = n n Y.Y.I.I.F.F.E.E.A.A.Q.E.j.j.o.o.J.J.H.H.F F A A +.+.= = x x h h h h h ",
"l l l l l l l l l l l = = 9.9.9.9.p.p.S.S.'.'. X X<.<.= = U U m.m.h.h.m.m.P.P.M.M.' ' { { G G , , B B K.K.4 4 = = h h h h h h h ",
"l l x x x l l l l l l = = 9.9.9.9.p.p.S.S.'.'. X X<.<.= = U U m.m.h.h.m.m.P.P.M.M.' ' { { G G , , B B K.K.4 4 = = l l l l h h h ",
"l l x x x x l l l l l l l = = R T 5.5.>.>.h.h.].]. X XX.X.= = m m ^ ^ T T / / Y Y Z Z 2 2 : : ~ ~ !.!.} } = = l l l h h h h h l ",
"x x x l l x x x x l l l l = = R T 5.5.>.>.h.h.].]. X XX.X.= = m m ^ ^ T T / / Y Y Z Z 2 2 : : ~ ~ !.!.} } = = l l l l l l l l l ",
"l l l l l l x x x l l l l l l = = ^ ^ 7.7.8.8.g.g.Q.Q. X X . .= = = = = = = = = = = = C C N.N. X Xw.w.= = l l l l l l l l l l l ",
"l l l l l l l l l l l l l l l = = ^ ^ 7.7.8.8.g.g.Q.Q. X X . .= = = = = = = = = = = = C C N.N. X Xw.w.= = l l l l l l l l l l l ",
"h h l l l l l l l l l l l l l l l = = P P 6.6.....*.*.k.k.L.L.d.d.1.1.,.,.=.=.d.d.K.K.!.!.N.N.E E = = l l l l l l l l l l l l l ",
"h h h h h h l l l l l l l l l l l = = P P 6.6.....*.*.k.k.L.L.d.d.1.1.,.,.=.=.d.d.K.K.!.!.N.N.E E = = l l l l l l l l l l l l l ",
"h h l l l l l l l l l l l l l l l l l = = = = | | [ [ ] ] *.*.0.0.=.=.J.J.G.G.R.R.H.H.@.@.H H = = l l l l l l l l l l l l l l l ",
"l l l l l l l l l l l l l l l f f f f = = = = | | [ [ ] ] *.*.0.0.=.=.J.J.G.G.R.R.H.H.@.@.H H = = l l l l l l l l l l f f f f l ",
"x x x l l l l l l l l l l f f x x f f f f = = = = . . 5 5 = = = = = = = = a a d d S S > > = = l l l l l l l l l l f f x x f f f ",
"x x x l l l f f f f l f f f f x x x x f f = = = = . . 5 5 = = = = = = = = a a d d S S > > = = l l l f f f f l f f f f x x x x f ",
"x l l f l f f x x f f f x f f x x x x x x x x 6 6 6 6 @ @ x x x x x x X X e e e e = = = = l l f l f f x f f f f x f f x x x x x ",
"l l f f f f x x x f f x x x x x x x x x x x x 6 6 6 6 @ @ x x x x x x X X e e e e = = = = l f f f f x x x f f x x x x x x x x x ",
"x f f x x x x x x x x x x x x z z h h 7 7 7 7 q q q q r r h h h x @ @ @ @ 9 9 u u @ @ l x f f x x x x x x x x x x x x x x h h h ",
"x x x x x x l l l x x x l l l z z h h 7 7 7 7 q q q q r r h h h x @ @ @ @ 9 9 u u @ @ x x x x x x x l l x x x x l l l x x h h h ",
"x x x x l l l l l x x l l h h h h & & 0 0 r r w w r r r r h h @ @ 8 8 p p p p u u @ @ l x x x x l l l l l x x l l h h h h h h h ",
"l x x l l l l l l l l l l h h h h & & 0 0 r r w w r r r r l h @ @ 8 8 p p p p u u @ @ l l x x l l l l l l l l l l h h h h h h h ",
"l l l l l l l h h h h h h h l l h # # $ $ + + % % % % % % l l @ @ @ @ @ @ @ @ @ @ @ @ l l l l l l l l h h h h h h h l l h h h h ",
"l l l l l l l l l h h h h l l l l # # $ $ + + % % % % % % l l @ @ @ @ @ @ @ @ @ @ @ @ l l l l l l l l l l h h h h l l l l h l l "
};
