/* XPM */
static char *_e242672e015441ad7f5321321854c2eVo0AuaZM48lhvgKO[] = {
/* columns rows colors chars-per-pixel */
"48 48 146 2 ",
"   c #rgba(255, 255, 255, 0)",
".  c #000017",
"X  c #1A102B",
"o  c #5C0A1B",
"O  c #6F2D0E",
"+  c #762110",
"@  c #7F1123",
"#  c #57242A",
"$  c #722C25",
"%  c #6F2D31",
"&  c #0E1042",
"*  c #091844",
"=  c #0C2657",
"-  c #112453",
";  c #1A2F5E",
":  c #1D2B55",
">  c #213258",
",  c #1A3468",
"<  c #253A65",
"1  c #2E3C60",
"2  c #233C69",
"3  c #2E4879",
"4  c #364C78",
"5  c #4C5A7D",
"6  c #8A1E0D",
"7  c #801211",
"8  c #B21F14",
"9  c #BA2B00",
"0  c #B62B0C",
"q  c #A62313",
"w  c #E13F0D",
"e  c #FF3A00",
"r  c #FF4400",
"t  c #FF4D00",
"y  c #FF5600",
"u  c #EF4A13",
"i  c #C66D1B",
"p  c #FF6300",
"a  c #FF6F00",
"s  c #FF7800",
"d  c #E27B2A",
"f  c #AA5048",
"g  c #956A45",
"h  c #EC6C54",
"j  c #FF931B",
"k  c #FFA011",
"l  c #FF9A4E",
"z  c #FE9963",
"x  c #355789",
"c  c #345587",
"v  c #345CA3",
"b  c #506185",
"n  c #586888",
"m  c #5F769A",
"M  c #666D87",
"N  c #707F9C",
"B  c #737E94",
"V  c #487CBD",
"C  c #84798E",
"Z  c #5E88BB",
"A  c #6684AF",
"S  c #6F89AC",
"D  c #7688A2",
"F  c #7787A4",
"G  c #7D90AC",
"H  c #778FB2",
"J  c #7E99BF",
"K  c #7992B1",
"L  c #818DA4",
"P  c #8090AC",
"I  c #8A95A8",
"U  c #8697B0",
"Y  c #869DB7",
"T  c #8B9CB5",
"R  c #AF98AB",
"E  c #9DA2B7",
"W  c #9AA5B8",
"Q  c #ACAFB6",
"!  c #BAB8B9",
"~  c #8FA6C5",
"^  c #8AA5CA",
"/  c #94AAC6",
"(  c #9BACC3",
")  c #98ADC9",
"_  c #92A8C7",
"`  c #9DB7D3",
"'  c #A4B5CB",
"]  c #ADB7CA",
"[  c #A7B8CE",
"{  c #A9BACD",
"}  c #B3BBC4",
"|  c #BABCC1",
" . c #B3BECF",
".. c #A1B6D1",
"X. c #ACBDD2",
"o. c #A7BDD8",
"O. c #BFC0C7",
"+. c #B1C1CF",
"@. c #ADC6DF",
"#. c #B2C4D7",
"$. c #BBC8D6",
"%. c #B3C7DB",
"&. c #B8C7D8",
"*. c #B5C8DB",
"=. c #BAC9DC",
"-. c #BDD1DF",
";. c #A6CDEF",
":. c #BBCFE1",
">. c #B4CAE1",
",. c #BFD3E2",
"<. c #C5C3C4",
"1. c #C5C7CA",
"2. c #CCCACB",
"3. c #C4CFDC",
"4. c #C4D0DE",
"5. c #CCD3DB",
"6. c #D3D4D5",
"7. c #D1D3DB",
"8. c #E1E2DE",
"9. c #C4D3E2",
"0. c #CCD6E1",
"q. c #CCDAE5",
"w. c #D6DCE3",
"e. c #D8DFE7",
"r. c #D2DDEA",
"t. c #D7E0E5",
"y. c #DCE3E5",
"u. c #D6E3EB",
"i. c #DBE5ED",
"p. c #DCF0FB",
"a. c #E5EBED",
"s. c #EBEFED",
"d. c #E3E6E3",
"f. c #EBF0EE",
"g. c #F1F3ED",
"h. c #E3ECF1",
"j. c #ECF2F2",
"k. c #E6F6FC",
"l. c #EAF5FA",
"z. c #E4F9FF",
"x. c #F2F6F4",
"c. c #FAF7F2",
"v. c #F6FAF3",
"b. c #FCFDF5",
"n. c #F3FBFC",
"m. c #FFFFFE",
/* pixels */
"                                                                                                ",
"                                                                                                ",
"                                                                                                ",
"                                                                                                ",
"                                                                                                ",
"                                                                                                ",
"                                                                                                ",
"                              - - - -                                                           ",
"                            - m.<.2.O.-                                                         ",
"                          - m.m.m.m.m.m.-                                                       ",
"                        - l l m.m.. . m.m.-                                                     ",
"                    v - l j p m.m.. . m.m.-                                                     ",
"                  i l l y y y z l.h.m.m.m.-                                                     ",
"                  O i y y y y y m.m.m.m.b.-                                                     ",
"                    o o f f f E m.m.v.m.0.-                                                     ",
"                        - - L ;.m.m.m.m.3.-                                                     ",
"                            - - m.m.m.m.v.-                                                     ",
"                              - m.m.m.m.m.-                                                     ",
"                              - m.m.m.m.b.-                                                     ",
"                              - m.m.m.m.b.-             -                                       ",
"                              - m.m.m.m.c.-           - =.-                                     ",
"                              - m.m.m.m.b.-         - =.=.- -                                   ",
"                              - m.m.b.m.b.- - - - - =.=.=.=.-   - - -                           ",
"                              - m.n.b.m.b.- - - - - - - - - - - - 1.m.- - -                     ",
"                            x b m.v.b.v.m.m.I Q 6.6.g.m.d.| ! <.m.m.x.- 8.c.-                   ",
"                            2 ( m.b.v.b.v.-.m.+.- m.m.b.m.m.k.u.0.5.- - } m.m.-                 ",
"                          c n l.b.c.b.f.9.n.5.- ] m.c.c.c.c.v.$.9.- W 1.< m.m.-                 ",
"                          = B m.b.v.b.a.h.7.- w.m.v.v.v.v.b.y./ X.x.e.- | m.- -                 ",
"                          > [ x.m.v.v.m.v.- 5.m.v.v.v.b.b.c.x.$.4.X.- - m.I -                   ",
"                          1 %.u.b.b.v.m.g.- %.m.m.b.m.a.s.m.x.{ #.m.h.- 5.-                     ",
"                          : ( &.i.m.b.b.v.- S p.w.w.a.a.f.r.K $.m.T - '  .-                     ",
"                          , 5 >.&.q.s.m.m.[ - Y ,.9.9.u.u.^ J T - - } m.- -                     ",
"                            < G %.X.%.u.m.m.) - 4 P D L F m 3 - M v.m.H -                       ",
"                              * U &.%.:.t.m.m.~ - - - - - - - =.m.m.` -                         ",
"                                * N %.[ ~ #.y.j.q.=.%.o.:.h.m.j.9.G -                           ",
"                                  ; 5 / @.` / X.$.{ z.n.n.m.3...F -                             ",
"                                    - - - - A ) _ V C z h R Z - -                               ",
"                                        # @ - - - - & 9 r % - -                                 ",
"                                      # # e #       # + s #                                     ",
"                                # w w w w t #   # #   6 a #                                     ",
"                                $ 0 7 q w t # # g u 8 d k #                                     ",
"                              X # # # # # # # # # # # # # #                                     ",
"                                                                                                ",
"                                                                                                ",
"                                                                                                ",
"                                                                                                ",
"                                                                                                ",
"                                                                                                "
};
