/* XPM */
static char *_2234914eb894e62e717f513cea2af4063IXu5rottIUfjcp[] = {
/* columns rows colors chars-per-pixel */
"32 32 134 2 ",
"   c black",
".  c #140E39",
"X  c #220E2D",
"o  c #5C0A1B",
"O  c #6F2D0E",
"+  c #5D1B23",
"@  c #52212A",
"#  c #652727",
"$  c #6D2220",
"%  c #772623",
"&  c #782B23",
"*  c #000D41",
"=  c #112453",
"-  c #182B57",
";  c #25335A",
":  c #1B3D72",
">  c #233662",
",  c #2C416C",
"<  c #314168",
"1  c #3C4D75",
"2  c #364A7B",
"3  c #B4250D",
"4  c #832E22",
"5  c #913322",
"6  c #C52F00",
"7  c #CD3009",
"8  c #E73E07",
"9  c #E83A0A",
"0  c #DC4703",
"q  c #FF5500",
"w  c #C66D1B",
"e  c #D77611",
"r  c #FF6300",
"t  c #E87417",
"y  c #FB6C38",
"u  c #AA5048",
"i  c #DC614F",
"p  c #3D8546",
"a  c #3E8748",
"s  c #3E8948",
"d  c #41894A",
"f  c #479152",
"g  c #4A9253",
"h  c #549A5C",
"j  c #FF931B",
"k  c #FF9A4E",
"l  c #FD9E63",
"z  c #345CA3",
"x  c #45618A",
"c  c #4A6188",
"v  c #566486",
"b  c #5A6785",
"n  c #5B6A87",
"m  c #5A6B8F",
"M  c #5A6B91",
"N  c #56729D",
"B  c #657697",
"V  c #737EA4",
"C  c #7689A5",
"Z  c #7E8AA3",
"A  c #7488A8",
"S  c #848DA3",
"D  c #8293AE",
"F  c #999FAB",
"G  c #829AB5",
"H  c #8A9BB6",
"J  c #8C9FB8",
"K  c #8FA3BC",
"L  c #95A0B5",
"P  c #9DA3B4",
"I  c #91A2BA",
"U  c #9BA9BB",
"Y  c #ABAEB7",
"T  c #A7AFBE",
"R  c #A9B1BE",
"E  c #B4B4B5",
"W  c #85A0C6",
"Q  c #89A3C2",
"!  c #8BA9C8",
"~  c #96ADC6",
"^  c #9DAEC7",
"/  c #90A9C9",
"(  c #9DAFC9",
")  c #9EB1CB",
"_  c #A4B4C6",
"`  c #ABB4C4",
"'  c #A4B5CD",
"]  c #B9BBC3",
"[  c #B3BACB",
"{  c #A4BAD4",
"}  c #ADBED1",
"|  c #BFC0C7",
" . c #BDC0C9",
".. c #AFC1D4",
"X. c #B5C4D3",
"o. c #BAC4D0",
"O. c #B4C6DB",
"+. c #B4C8DD",
"@. c #BACBDC",
"#. c #A6CDEF",
"$. c #BBCDE2",
"%. c #C6CACF",
"&. c #CACCCF",
"*. c #C2C6D2",
"=. c #C5C9D5",
"-. c #C6D2DF",
";. c #C8D4DD",
":. c #C0CFE3",
">. c #C4D5E3",
",. c #CBD9E4",
"<. c #D3DDE4",
"1. c #DDDFE2",
"2. c #D4DFE9",
"3. c #D0DFF0",
"4. c #D0E0E7",
"5. c #DCE1E7",
"6. c #D2E1EC",
"7. c #DEE5ED",
"8. c #DEECF3",
"9. c #E2E3E3",
"0. c #E7ECED",
"q. c #EBEEEC",
"w. c #F8F3EC",
"e. c #E2EBF1",
"r. c #E8EDF2",
"t. c #E7F0F1",
"y. c #ECF3F5",
"u. c #E5F6FF",
"i. c #EBF5FC",
"p. c #F3F5F4",
"a. c #F6F9F3",
"s. c #FBFDF5",
"d. c #F5F9FC",
"f. c #FEFFFE",
/* pixels */
"h g g g g g g g g g g g g g g g g g g g g g g g g g g g g g g h ",
"d a d d d d s = = = = = d d d d d d d d d d d d s s d d d d a d ",
"d p a s s s = = f.f.| | = s s s s s s s s s s s a a s s s a p d ",
"f s s s s = = f.f.    f.| = s s s s s s s s s s s s s s s s s f ",
"g d s s = = k k f.    f.f.= s s s s s s s s s s s s s s s s s g ",
"g s s z = k j r f.f.f.f.f.= s s s s s s s s s s s s s s d s s g ",
"g a w k k q q q l f.f.f.f.= s s s s s s s s s s s s s s s a a g ",
"g d O w q q q q q f.f.f.f.= s s s s s s s s s s s s s s d a d g ",
"g d s o o u u u P f.f.f.f.= s s s s s s s s s s s s s s s s d g ",
"g d s s s = = S #.f.f.f.f.= s s s s s s s s s s s s s s s s d g ",
"g d s s s s s = = f.f.f.f.= s s s s s s s s s s s s s s s s d g ",
"g d s s s s s s = f.f.f.f.= s s s s s = = s s s s s s s s s d g ",
"g d s s s s s s = f.f.f.f.= s s s s = H H = s s s s s s s s d g ",
"g d s s s s s s = f.f.f.f.= s s s = ' ' H H = s s s s s s s d g ",
"g d s s s s s s = f.f.f.f.= s = = ' 3.3.:.m m = = = s s s s d g ",
"g d s s s s s s = f.a.s.f.= = = = = = = = = = = S 9.= = = s d g ",
"g d s s s s s s = f.s.s.s.p.T F ] &.9.q.%.Y E 1.f.q.> 9. .= a g ",
"g d s s s s a = _ f.s.s.a.4.d.o.= p.f.s.f.f.8.<.o., < R f.[ * g ",
"g d s s s s = y.y.s.s.a.<.i.*.= [ f.a.a.a.s.;.$.v ` P b s.S = g ",
"g d s s s s = s.s.s.a.a.y.*.= =.f.a.a.s.s.a.X.' e.L - q.` = = g ",
"g d s s s s = y.y.f.a.s.f.= C f.f.s.s.p.a.f.<.} 2.Z - 5.= = d g ",
"g d s s s s = >.>.p.f.s.f.= x u.y.q.p.0.p.,._ e.e.Z B ` = s d g ",
"g d s s s s = +.+.-.0.s.f.X.= G 6.,.6.y.6.W ~ Z > n r.1 = s d g ",
"g d s s s s s = J O...,.d.f._ = c I J U H N , ; P p.^ = s s d g ",
"g d a d s s s s = I +.+.,.p.f.( = = = = = = M 7.f.$.= s d a d g ",
"g a a s s s s s s = D O.) { <.t.>.X...{ >.r.p.7.K = s s s a a g ",
"g s s d s s s s s s = = / ! Q { @.{ e.w.p.e.' A = s s s d s s g ",
"g s s s s s s s s s s = = . 2 = = = = y i V : = s s s s s s s g ",
"f s s s s s s s s s s s 3 3 @ s s s X 0 0 = = s s s s s s s s f ",
"d p a s s s a a p s 4 4 8 8 q s s @ @ 6 e @ s s a a s s s a p d ",
"d a d d d d s s d & 7 q 9 q q d @ 5 t t e @ d d s s d d d d a d ",
"h g g g g g g g g # $ + % % % g @ @ @ @ @ @ g g g g g g g g g h "
};
