/* XPM */
static char *be4e395409ba40c2f3318fced9700429Sz5LIxhXgRdsY88y[] = {
/* columns rows colors chars-per-pixel */
"32 32 11 1 ",
"  c gray32",
". c #494949",
"X c #565656",
"o c #5F5F5F",
"O c #377937",
"+ c #428642",
"@ c #489348",
"# c #35682F",
"$ c #2E5B29",
"% c #284E23",
"& c #203D1D",
/* pixels */
"  .....                  .....  ",
" XX .XXooooooooooooooooooXX. XX ",
".Xo O++@@+++++++++++++++@@+O oX.",
".  O+@@@+++++OOOO++++++++@@+O  .",
"..O+@@+++O+OOO##OOOOO+++++@@+O..",
".X+@@+++OOOO########OOO++++@@+X.",
".X+@@++OO#O###$##$$##OO+++++@+X.",
" o+@+++O#####$$$$$$$##OO++++@@o ",
" o+@++OO###$$$$$$$$$##OO++++@@o ",
" o@@+OOO###$$$%$%%$$$##OO+++@@o ",
" o@@+OO###$$$%%%%%%%$###O+++@@o ",
" o@++O####$$%%%%%%%$$$##O++++@o ",
" o@+OO###$$%%%%&&&%%$$##OO+++@o ",
" o@+OO###$$$%%&&&&%%$$$#OO+++@o ",
" o@+OO###$$$%%&&&&&%$$$##O+++@o ",
" o@+OOO##$$%%%%&&&%%%$$##OO++@o ",
" o@+OOO###$$%%%&&&&%%$###OO++@o ",
" o@++OOO##$$%%&&&&&%%$###OO++@o ",
" o@++OOO###$$%%%&&%%%$###OO++@o ",
" o@@+++O###$$%%%%%%%$$###OO+@@o ",
" o@@+++OO##$$$%%%%%$$$###OO+@@o ",
" o@@+++OO##$$$%$%$$$$###OO++@@o ",
" o@@@+++O###$$$$$$$$###OOO++@+o ",
" o+@@+++OO##$$$##$$####OO++@@+o ",
" o+@@@+++O###$#######OOO+++@@+o ",
".X++@@+++O##########OO++++@@@+X.",
".XO+@@+++OO#O##OOOO#O+++++@@+OX.",
"..O+@@+++OOOOOOOOOOOO+++++@@+O..",
".  O+@@++++O+OOO++OO+++@@@@+O  .",
".Xo O+@@++++++++++++++@@@@+O oX.",
" XX .XXooooooooooooooooooXX. XX ",
"  .....                  .....  "
};
