/* XPM */
static char *a85bb4e7ed5442e5c248a6a03fa44d2bXVCyMBJ1SOY9HzhI[] = {
/* columns rows colors chars-per-pixel */
"42 42 4 1 ",
"  c #679175",
". c #79A863",
"X c #9BB94E",
"o c #BFBA5B",
/* pixels */
"XXXXXXX..........XXXXXXXXXXXXXXXXXXX......",
"XoooXXXXX...XX......ooXXXXXXXXoooXXXXX...X",
"ooXoooXXXXXXXX..XXoXoooXXXXXXooXooXXXXXXXX",
"XXXXXXXXXXXXXXXX......ooooo.XXXXXXXXXXXXXX",
".XXXXXXXXXXXXXXX..X...........XXXXXXXXXXXX",
".XXXXXXXXXXXXXXXXXXXXX.X......XXXXXXXXXXXX",
"XXXXXXXXXX  XX  XXXoXXXXX.X.XXXXXXXXXXX  X",
"ooXX      oo  ooo ooooXXXXoooooXX  X   oo ",
"oX   o  o oooooooooooooXXoooooXX o     ooo",
"o ooooooooo..ooXXXo..ooooXXXXo ooooooooo..",
"oooXXXoXX....XXX......XXXXooXooXXXXoX.....",
"XoXXXXXXX......X..XX..XXXXoXXXoXXXXXX.....",
"XXXXXX...XX.X...X.XXXXXXXX..XXXXXXX..XXX.X",
"XXXXXXX..XXXXX..XXXXXXXXXX..XXXXXXXX.XXXXX",
".XXoooooooXXXX..XXXXXX........XXoooooooXXX",
"..XXooooo......................XXoooo.....",
"XXoooooXXX........ .    XX   XXoooooXXX...",
"XooooooXXXX......         o  XoooooXXXXX..",
"oXXXXXoooXXXXX..  ooooooooooooXXXXoooXXXXX",
"oooXXXoXXXXXXXoooooooooooooooooXXXXoXoXXXX",
"oooXoooXXXXXXXXXXXoXXXXXXoXoooooXooXXXXXXX",
"oXooooXXXXXXXXXXXXXXXXXXXXXoooXooooXXXXXXX",
"XXXXXX.......XoooXXXXX.XXXXXXXXXXX........",
"XXXXX........oooooo.XX..XXXXXXXXXX........",
"...XXXXXXXXXXXXXXXXXXXXXXX.....XXXXXXXXXXX",
"..XXXXXXXXXX   X  ..X...XX.XX..XXXXXXXXXX ",
"XXXX  o  ooooo  oo o...X..XXXXXXX oo ooooo",
".XX  oooooooooo oooo..XXX.....X  ooooooooo",
"ooXXXo...o......XXXXooXX..oooooXXo...oo...",
"XXXXXXX..........XXXXXXXXXXXXXXXXXXX......",
"XoooXXXXX...XX......ooXXXXXXXXoooXXXXX...X",
"XXXXooXXXXXXXXXXXooooooXXXXXXXXXXooXXXXXXX",
"XXXXXXXXXXXXXXXX......ooooo.XXXXXXXXXXXXXX",
"....XXXXXXXXXXXXXXXXX............XXXXXXXXX",
".XXXXXXXXXXXXXXXXXXXXX.X......XXXXXXXXXXXX",
"ooXXXXXXX o   oo Xoooo.XXXXXXooXXXXXX  o  ",
"ooXX      oo  ooo ooooXXXXoooooXX  X   oo ",
"X   oo ooooooooooooooooXXXXXXX   oo oooooo",
"o ooooooooo..ooXXXo..ooooXXXXo ooooooooo..",
"oooXXXoXX....XXX......XXXXooXooXXXXoX.....",
"XoXXXXXXX......X..XX..XXXXoXXXoXXXXXX.....",
"XXXXXX...XX.X...X.XXXXXXXX..XXXXXXX..XXX.X"
};
