/* XPM */
static char *_cc12502c5ed41e1ef646cd59aba2f2dB0utvNaUTfDEnWsY[] = {
/* columns rows colors chars-per-pixel */
"64 64 4 1 ",
"  c #679175",
". c #79A863",
"X c #9BB94E",
"o c #BFBA5B",
/* pixels */
"XXXXXXXXXXX...............XXXXXXXXXXXXXXXXXXXXXXXXXXXXX.........",
"XXoooXXXXXXXXXXXX.................XXXXXXXXXXXXoooXXXXXXXXXXXX...",
"XXooooXXXXXXXX.....XX..........oo.XXXXXXXXXXXXooooXXXXXXXX.....X",
"oooXXooooXXXXXXXXXXXXX..XXXXoXXooooXXXXXXXXXoooXXoooXXXXXXXXXXXX",
"XXXXXXoooXXXXXXXXXXXXXXXXXoooooooooXXXXXXXXXXXXXXXoooXXXXXXXXXXX",
"XXXXXXXXXXXXXXXXXXXXXXXXX.........ooooooo..XXXXXXXXXXXXXXXXXXXXX",
"..XXXXXXXXXXXXXXXXXXXXXX....X.................XXXXXXXXXXXXXXXXXX",
".........XXXXXXXXXXXXX....XXXX......................XXXXXXXXXXXX",
"..XXXXXXXXXXXXXXXXXXXXXXXXXXXXXXX..XX.........XXXXXXXXXXXXXXXXXX",
"XXXXXXXXXXXXXXX    XXX   XXXXooXX.XXXX.XX.XXXXXXXXXXXXXXXXX    X",
"oooXXXXXXXXXX  oo     ooo XXooooo..XXXXXXXXXoooXXXXXXXXXX  oo   ",
"oooXXX    X    oooo   oooo XooooooXXXXXXoooooooXXX    X    oooo ",
"oXX X  oo   o  ooooooooooooooooooooXXXoooooooXX X  o    o  ooooo",
"XX    ooo  ooooooooooooooooooooooooXXXXXXXXXXX    ooo  ooooooooo",
"o  oooooooooooooo...oooXXXXoo...ooooooXXXXXXo  oooooooooooooo...",
"ooooooXXXoooXXXoo....XoXXXXX....ooooXXXXXXooooooooXXooooXXXoo...",
"ooooXXXXXooXX.......XXXXX........XXXXXXXooXXooooXXXXXooXX.......",
"XooXXXXXXXXXX..........X....XX...XXXXXXooXXXXooXXXXXXXXXX.......",
"XXXXXXXXXXX.................XXX....XXXXXXXXXXXXXXXXXXXX.........",
"XXXXXXXXX....XXXX.XX.....X..XXXXXXXXXXXX..XXXXXXXXXXX....XXXX.XX",
"XXXXXXXXXXX..XXXXXXXXX..XXX.XXXXXXXXXXX....XXXXXXXXXXXX..XXXXXXX",
"XXXXXXoooXXXoooXXXXXXXXXXXXXXXXXXX.........XXXXXXXoooXXXoooXXXXX",
".XXXXoooooooooooXXXXXX..XXXXXXXXX............XXXXoooooooooooXXXX",
"...XXXooooooo..................................XXXooooooo.......",
".XXXXXXooooX..XX...............  ............XXXXXXooooX..XX....",
"XXXooooooooXXXX............  .       XX     XXXooooooooXXXX.....",
"XXooooooooXXXXXXX.........             oo   XXooooooooXXXXXXX...",
"ooXXXXXooooooXXXXXXXX.....  ooooo ooooooooooooXXXXXooooooXXXXXXX",
"ooXXXXXXXooooXXXXXXXX...   oooooooooooooooooooXXXXXXoooooXXXXXXX",
"ooooXXXXXooXXoXXXXXXXXooooooooooooooooooooooooooXXXXXooXXoXXXXXX",
"oooooXXooXXXXXXXXXXXXoXXooooooXXoooXXooXXooooooooXXoXXXXXXXXXXXX",
"oooooXooooXXXXXXXXXXXXXXXXXooXXXXoXXXXoXXooooooooXooooXXXXXXXXXX",
"oXXooooooXXXXXXXXXXXXXXXXXXXXXXXXXXXXXXXXooooXXooooooXXXXXXXXXXX",
"XXXXXXXXXXX....XXXXXXXXXXXXXXXXXXXXXXXXXXXXXXXXXXXXXXXX....XXXXX",
"XXXXXXXXX...........XXooooXXXXXXX..XXXXXXXXXXXXXXXXX............",
"XXXXXXXX............ooooooooo..XX...XXXXXXXXXXXXXXXX............",
"XX.XX.....XXXXX..XX.....oo...XX..XX..XXX....XX.XX.....XXXXX..XX.",
"....XXXXXXXXXXX.XXXXXXXXXXXXXXXXXXXXXXX.........XXXXXXXXXXX.XXXX",
"...XXXXXXXXXXXXXXXX    XX  X...X.....XX..XXX...XXXXXXXXXXXXXXXX ",
"XXXXXXXXX   X  XXooo        .............XXXXXXXXXXX    X  XXooo",
"XXXXXX   oo  oo oooooo   ooo oo..X.XX...XXXXXXXXXX  ooo  oo oooo",
".XXX   oooooooooooooooo ooooooo..XXXXX.......XXX   ooooooooooooo",
"...o oooooooooooooo..oooooXooooooXXXXX.........o oooooooooooooo.",
"oooXXXXoo....oo.........XXXXXXXooXXXX..ooooooooXXXXo.....oo.....",
"XXXXXXXXXXX...............XXXXXXXXXXXXXXXXXXXXXXXXXXXXX.........",
"XXoooXXXXXXXXXXXX.................XXXXXXXXXXXXoooXXXXXXXXXXXX...",
"XXooooXXXXXXXX.....XX..........oo.XXXXXXXXXXXXooooXXXXXXXX.....X",
"oooXXooooXXXXXXXXXXXXX..XXXXoXXooooXXXXXXXXXoooXXoooXXXXXXXXXXXX",
"XXXXXXoooXXXXXXXXXXXXXXXXXoooooooooXXXXXXXXXXXXXXXoooXXXXXXXXXXX",
"XXXXXXXXXXXXXXXXXXXXXXXXX.........ooooooo..XXXXXXXXXXXXXXXXXXXXX",
"..XXXXXXXXXXXXXXXXXXXXXX....X.................XXXXXXXXXXXXXXXXXX",
"......XXXXXXXXXXXXXXXXXXXXXXXXXX..................XXXXXXXXXXXXXX",
"..XXXXXXXXXXXXXXXXXXXXXXXXXXXXXXX..XX.........XXXXXXXXXXXXXXXXXX",
"XXXXXXXXXXXXXXX    XXX   XXXXooXX.XXXX.XX.XXXXXXXXXXXXXXXXX    X",
"oooXXXXXXXXXX  oo     ooo XXooooo..XXXXXXXXXoooXXXXXXXXXX  oo   ",
"oooXXX    X    oooo   oooo XooooooXXXXXXoooooooXXX    X    oooo ",
"oXX X  oo   o  ooooooooooooooooooooXXXoooooooXX X  o    o  ooooo",
"XX    ooo  ooooooooooooooooooooooooXXXXXXXXXXX    ooo  ooooooooo",
"o  oooooooooooooo...oooXXXXoo...ooooooXXXXXXo  oooooooooooooo...",
"ooooooXXXoooXXXoo....XoXXXXX....ooooXXXXXXooooooooXXooooXXXoo...",
"ooooXXXXXooXX.......XXXXX........XXXXXXXooXXooooXXXXXooXX.......",
"XooXXXXXXXXXX..........X....XX...XXXXXXooXXXXooXXXXXXXXXX.......",
"XXXXXXX.......XX............XXXXXXXXXXXXXXXXXXXXXXX.......XX....",
"XXXXXXXXX....XXXX.XX.....X..XXXXXXXXXXXX..XXXXXXXXXXX....XXXX.XX"
};
