/* XPM */
static char *_01b47b3c2364d72f5eb45ddee0d04304vZ8iICccgumbkOJ[] = {
/* columns rows colors chars-per-pixel */
"32 32 230 2 ",
"   c None",
".  c black",
"X  c #030203",
"o  c #060006",
"O  c #070006",
"+  c #0B0005",
"@  c #090308",
"#  c #0B0709",
"$  c #100B0D",
"%  c #1A0B0A",
"&  c #1A0C0A",
"*  c #1A0C0B",
"=  c #1B0C0B",
"-  c #1D0D0B",
";  c #1B0D0C",
":  c #1C0D0C",
">  c #210F0E",
",  c #302007",
"<  c #24201E",
"1  c #3E3811",
"2  c #2C2B28",
"3  c #372229",
"4  c #382128",
"5  c #3F242E",
"6  c #39342D",
"7  c #353532",
"8  c #3F3E33",
"9  c #6F1E00",
"0  c #41262F",
"q  c #43272F",
"w  c #47272E",
"e  c #562926",
"r  c #572926",
"t  c #582925",
"y  c #582826",
"u  c #582926",
"i  c #5A2826",
"p  c #5B2B27",
"a  c #5C2B27",
"s  c #5D2B27",
"d  c #542A2A",
"f  c #592A28",
"g  c #5F2E2A",
"h  c #582D2D",
"j  c #492B31",
"k  c #482C32",
"l  c #492D33",
"z  c #4A2D35",
"x  c #4F3135",
"c  c #4D3136",
"v  c #463139",
"b  c #4F383D",
"n  c #513236",
"m  c #503237",
"M  c #543437",
"N  c #543438",
"B  c #543538",
"V  c #553638",
"C  c #563638",
"Z  c #573638",
"A  c #593738",
"S  c #5D3A39",
"D  c #5F3A39",
"F  c #622E29",
"G  c #612F2B",
"H  c #632F2C",
"J  c #61302B",
"K  c #64302C",
"L  c #643331",
"P  c #693733",
"I  c #6E3933",
"U  c #6F3A35",
"Y  c #603B3B",
"T  c #643E3B",
"R  c #653E3B",
"E  c #663E3B",
"W  c #643E3C",
"Q  c #653F3C",
"!  c #713A36",
"~  c #703B36",
"^  c #723C37",
"/  c #723D37",
"(  c #723E3A",
")  c #733E3A",
"_  c #733F3A",
"`  c #743D38",
"'  c #743E38",
"]  c #743E39",
"[  c #743F39",
"{  c #753F39",
"}  c #763E38",
"|  c #743F3A",
" . c #753F3A",
".. c #3E423E",
"X. c #474620",
"o. c #4D4A3C",
"O. c #7A4337",
"+. c #75403A",
"@. c #76403A",
"#. c #71453E",
"$. c #7B4639",
"%. c #7D453B",
"&. c #7E453A",
"*. c #7C7330",
"=. c #533E42",
"-. c #464642",
";. c #544042",
":. c #5C4645",
">. c #5B4648",
",. c #5E494A",
"<. c #5F4B4C",
"1. c #5B5453",
"2. c #604A4C",
"3. c #756B61",
"4. c #766C62",
"5. c #796F64",
"6. c #81483A",
"7. c #82493A",
"8. c #83493A",
"9. c #82483B",
"0. c #82493B",
"q. c #854A3A",
"w. c #864A3A",
"e. c #874C3A",
"r. c #884D3A",
"t. c #884D3B",
"y. c #894E3B",
"u. c #8C4F3B",
"i. c #8A4E3C",
"p. c #8D5039",
"a. c #8E5139",
"s. c #8F5139",
"d. c #8E513A",
"f. c #8E513B",
"g. c #8F523A",
"h. c #8C503C",
"j. c #91533A",
"k. c #92543B",
"l. c #93543B",
"z. c #93553B",
"x. c #94553B",
"c. c #96563B",
"v. c #93543C",
"b. c #94553D",
"n. c #95563C",
"m. c #96563D",
"M. c #95563E",
"N. c #97573E",
"B. c #98573C",
"V. c #99573D",
"C. c #98573E",
"Z. c #99593F",
"A. c #9A593F",
"S. c #975940",
"D. c #9D5B40",
"F. c #9F5C41",
"G. c #A05D41",
"H. c #A66145",
"J. c #A86345",
"K. c #AA6345",
"L. c #A96447",
"P. c #A6654C",
"I. c #AB674C",
"U. c #AC684C",
"Y. c #AD684D",
"T. c #AE694D",
"R. c #AE6A4E",
"E. c #B16A4C",
"W. c #B26A4C",
"Q. c #B26B4D",
"!. c #B16B4F",
"~. c #B36C4E",
"^. c #B56C4E",
"/. c #B56D4E",
"(. c #B66E4F",
"). c #B96F4F",
"_. c #BB7151",
"`. c #BC7251",
"'. c #BE7251",
"]. c #8A766A",
"[. c #C17453",
"{. c #C27553",
"}. c #A19134",
"|. c #FD871C",
" X c #EB9E2B",
".X c #FFB235",
"XX c #FFB634",
"oX c #8A8073",
"OX c #998372",
"+X c #A28A76",
"@X c #A6927F",
"#X c #E19A64",
"$X c #E19C65",
"%X c #E3A06A",
"&X c #EDAD76",
"*X c #FFC44A",
"=X c #FFDF52",
"-X c #FFE85B",
";X c #FFF970",
":X c #AA9984",
">X c #AC9A84",
",X c #AD9E88",
"<X c #A09891",
"1X c #B3A28A",
"2X c #BEA789",
"3X c #BFA789",
"4X c #D2B592",
"5X c #D3BA98",
"6X c #EFB984",
"7X c #EFBF8C",
"8X c #F1B983",
"9X c #F3BA82",
"0X c #F2BA83",
"qX c #F2BE8A",
"wX c #E4BF92",
"eX c #DDC59E",
"rX c #DEC59F",
"tX c #F1C998",
"yX c #F5CB98",
"uX c #FBCF9A",
"iX c #FDD19B",
"pX c #E7CDA5",
"aX c #E7CFA4",
"sX c #EED8AC",
"dX c #FBE0AE",
"fX c #FEE8B5",
"gX c #F0DFCA",
"hX c #FFFCC1",
"jX c #F7F0CF",
"kX c #FFFFDF",
/* pixels */
"                                                                ",
"                                                                ",
"                                                                ",
"                                                                ",
"                                                                ",
"                                                                ",
"                                                                ",
"                                                                ",
"                                                                ",
"                                                                ",
"                                                                ",
"                                                                ",
"        A R R Q Q Q Q Q Q Q R S                                 ",
"      C P.[./.E.E.E.E.E.E./.[.R.Y x C C C C M C q v <.=.        ",
"    m P.'.'.L.n.C.C.C.C.n.H._.).R.I.R.R.R.R.E.I.S ].sX2Xb       ",
"    C ~.J.n.n.a.a.a.a.a.a.v.A.A.F.G.G.G.D.J./.#.OXwX8X7X2X=.    ",
"    x S.C.a.a.k.k.k.k.k.k.j.a.a.a.a.a.a.a.C.n.l ,XiX#X8XaX,.    ",
"    l $.w.a.c.a.9.9.9.9.9.y.c.k.k.k.c.u.9.w.O.j :XyX%X6XeX>.    ",
"    z P ` 9.h.9._ _ ` ` _ %.i.y.e.e.y.%._ ` L q >XyX%X6XeX>.    ",
"    4 h ! ` ` ` ` ` ` ` ` ` ^ ! ` +.+.+.` I t 5 1XuX$X8XaX2.o   ",
"    # 3 d t e e e e e e e e t H ^ ` ` +.U F t w @XtX&XqX5X;.o   ",
"                            > t K F F J g a a f m +XdX4X:.$     ",
"                              * * * * % * ; : - + < o.6 @       ",
"                                                                ",
"                                                                ",
"                                                                ",
"                                                                ",
"                                                                ",
"                                                                ",
"                                                                ",
"                                                                ",
"                                                                "
};
