/* XPM */
static char *_597d94de4974903cedc85245e6b7146UWhuDrgaVJyFL1Lm[] = {
/* columns rows colors chars-per-pixel */
"42 42 154 2 ",
"   c #020006",
".  c #02010A",
"X  c #020113",
"o  c #01021E",
"O  c #030526",
"+  c #060922",
"@  c #03022C",
"#  c #0D0B27",
"$  c #171427",
"%  c #161C2E",
"&  c #020233",
"*  c #080833",
"=  c #010139",
"-  c #2F2C3D",
";  c #020343",
":  c #02024A",
">  c #252D56",
",  c #2A345C",
"<  c #051367",
"1  c #000E7C",
"2  c #08177F",
"3  c #5A7D53",
"4  c #728844",
"5  c #679175",
"6  c #79A863",
"7  c #9BB94E",
"8  c #BFBA5B",
"9  c #000D84",
"0  c #103B87",
"q  c #05389D",
"w  c #183791",
"e  c #0018A5",
"r  c #0018AD",
"t  c #001EB6",
"y  c #0139A3",
"u  c #0021B6",
"i  c #385F96",
"p  c #3E6196",
"a  c #3F609C",
"s  c #0C52AA",
"d  c #1558AF",
"f  c #0958B1",
"g  c #0659BA",
"h  c #0F4FB1",
"j  c #0565B6",
"k  c #5C5C85",
"l  c #416396",
"z  c #62658F",
"x  c #7F7E83",
"c  c #0029C6",
"v  c #0027C9",
"b  c #002BC8",
"n  c #084BC2",
"m  c #8C718D",
"M  c #0581BE",
"N  c #2D8CD5",
"B  c #3688DA",
"V  c #16B5DF",
"C  c #1AA6C7",
"Z  c #0399ED",
"A  c #1194EE",
"S  c #019BF4",
"D  c #199EF5",
"F  c #17BEFF",
"G  c #27B7FF",
"H  c #29B5FF",
"J  c #27B8FF",
"K  c #6AA2D1",
"L  c #4898EC",
"P  c #05CFFF",
"I  c #03C2FC",
"U  c #10CEFF",
"Y  c #18CDFD",
"T  c #14C8F6",
"R  c #0BD3FF",
"E  c #26C5E3",
"W  c #45EDFA",
"Q  c #4BE4F0",
"!  c #42F0F7",
"~  c #45F3FB",
"^  c #878883",
"/  c #9D9099",
"(  c #898795",
")  c #A78A9F",
"_  c #9797B0",
"`  c #A58CA2",
"'  c #A88CA2",
"]  c #A49CA3",
"[  c #AF97AB",
"{  c #AA95A5",
"}  c #B39AAC",
"|  c #B89DAA",
" . c #B298A8",
".. c #B097B4",
"X. c #B199B2",
"o. c #AFADA9",
"O. c #ABA1A2",
"+. c #B9A0AD",
"@. c #BEAEAF",
"#. c #B2A0A9",
"$. c #A0A1B5",
"%. c #ABABB6",
"&. c #A3ACBB",
"*. c #ADAFBE",
"=. c #BCA0B0",
"-. c #B0ADBE",
";. c #C0AEB7",
":. c #C6B4B4",
">. c #C9B5B4",
",. c #C9B7BB",
"<. c #AAAEC1",
"1. c #AAB1C3",
"2. c #C7B1C4",
"3. c #C9B3C6",
"4. c #CAB4CA",
"5. c #91DBED",
"6. c #82E1F3",
"7. c #8BF5FE",
"8. c #90F4FF",
"9. c #93F8FE",
"0. c #AAFBFF",
"q. c #C2C4C4",
"w. c #DCD3C7",
"e. c #DCD9CC",
"r. c #D9D6D0",
"t. c #DCD8D0",
"y. c #DAD8D9",
"u. c #E1D8C6",
"i. c #E2D7C8",
"p. c #E4DACC",
"a. c #E8DFCE",
"s. c #E9DED4",
"d. c #E6E0CB",
"f. c #E7E0D3",
"g. c #EAE1D4",
"h. c #E0E0DC",
"j. c #ECEADA",
"k. c #F0E7D6",
"l. c #F0E8D4",
"z. c #F1ECD9",
"x. c #F1E6DA",
"c. c #F7F1DF",
"v. c #E5E5E7",
"b. c #ECEFEC",
"n. c #F2F0E1",
"m. c #FAF6E2",
"M. c #FCFAE6",
"N. c #F4F3EA",
"B. c #FCF7E9",
"V. c #FDFBEA",
"C. c #FDFEF3",
"Z. c #FEFEFE",
"A. c #FEFCFA",
"S. c gray96",
/* pixels */
"7 7 7 7 7 7 7 6 6 6 6 6 6 6 6 6 6 7 7 7 7 7 7 7 7 7 7 7 7 7 7 7 7 7 7 7 6 6 6 6 6 6 ",
"7 8 8 8 7 7 7 7 7 6 6 6 7 7 6 6 6 6 6 6 8 8 7 7 7 7 7 7 7 7 8 8 8 7 7 7 7 7 6 6 6 7 ",
"8 8 7 8 8 8 7 7 7 7 7 7 7 7 6 6 7 7 8 7 8 8 8 7 7 7 7 7 7 8 8 7 8 8 7 7 7 7 7 7 7 7 ",
"7 7 7 7 7 7 7 7 7 7 7 7 7 7 7 7 6 6 6 6 6 6 8 8 8 8 8 6 7 7 7 7 7 7 7 7 7 7 7 7 7 7 ",
"6 7 7 7 7 7 7 7 7 7 7 7 7 7 7 7 6 6 7 6 6 6 6 6 6 6 6 6 6 6 7 7 7 7 7 7 7 7 7 7 7 7 ",
"6 7 7 7 7 7 7 7 7 7 7 7 7 7 7 7 7 7 7 7 7 7 6 7 6 6 6 6 6 6 7 7 7 7 7 7 7 7 7 7 7 7 ",
"7 7 7 7 7 7 7 7 7 7 5 5 7 O O O O O O O O O O O O O O O O O 7 7 7 7 7 7 7 7 7 5 5 7 ",
"8 8 7 7 5 5 5 5 5 5 8 8 5 O &.1.1.&.<.%.%.%.-.*.$._ k k z @ 8 7 7 5 5 7 5 5 5 8 8 5 ",
"8 7 5 5 5 8 5 5 8 5 8 8 8 @ & = ; ; ; : ; : : : = = = ; & @ 7 7 5 8 5 5 5 5 5 8 8 8 ",
"8 5 8 8 8 8 8 8 8 8 8 6 O & 5.Z.C.Z.Q W W ! ~ Y T Z j q d & O 8 8 8 8 8 8 8 8 8 6 6 ",
"8 8 8 7 7 7 8 7 7 6 6 6 O 0 C L K B D H H G J A D S s q f w O 7 7 7 7 8 7 6 6 6 6 6 ",
"7 8 7 7 7 7 7 7 7 6 6 6 O s V U E P P P P P R I F n g y g d O 7 7 7 7 7 7 6 6 6 6 6 ",
"7 7 7 7 7 7 6 6 6 7 7 6 O :.f.C.A.V.V.V.V.V.V.j.a.w.} m | 3.O 7 7 7 7 6 6 7 7 7 6 7 ",
"7 7 7 7 7 7 7 6 6 7 7 7 O >.s.l.n.V.V.V.V.M.V.z.z.i.X.`  .4.O 7 7 7 7 7 6 7 7 7 7 7 ",
"6 7 7 8 8 8 8 8 8 8 7 7 O :.s.M.V.V.V.V.V.V.  z.g.#.} ` [ 4.O 7 8 8 8 8 8 8 8 7 7 7 ",
"6 6 7 7 8 8 8 8 8 6 6 6 O :.a.M.C.M.M.C.O V.V.& g.p.} '  .4.O 7 7 8 8 8 8 6 6 6 6 6 ",
"7 7 8 8 8 8 8 7 7 7 6 6 O :.a.A.A.M.M.O C.V.M.M.$ p.} '  .4.O 8 8 8 8 8 7 7 7 6 6 6 ",
"7 8 8 8 8 8 8 7 7 7 7 6 O :.g.z.n.V.@ y.O C.V.* x O } ` [ 4.O 8 8 8 8 7 7 7 7 7 6 6 ",
"8 7 7 7 7 7 8 8 8 7 7 7 O ,.g.V.n.  . N.X t.  - ^ O X.`  .4.O 7 7 7 8 8 8 7 7 7 7 7 ",
"8 8 8 7 7 7 8 7 7 7 7 7 O ,.s.m.M.M.X ] M.C.O g.. p.[ '  .2.O 7 7 7 7 8 7 8 7 7 7 7 ",
"8 8 8 7 8 8 8 7 7 7 7 7 O >.g.m.M.M.V.@ @ B.C.@ p.p.} m | 2.O 8 7 8 8 7 7 7 7 7 7 7 ",
"8 7 8 8 8 8 7 7 7 7 7 7 O :.g.w.e.@ j.g.O.N.C.p.r.o } ' =.4.O 8 8 8 8 7 7 7 7 7 7 7 ",
"7 7 7 7 7 7 6 6 6 6 6 6 O :.g.m.B.v.o X q.M.+ o # @ } ' +.4.O 7 7 7 6 6 6 6 6 6 6 6 ",
"7 7 7 7 7 6 6 6 6 6 6 6 O :.g.m.B.+ A.Z.# M.A.j.o.O } m +.4.O 7 7 7 6 6 6 6 6 6 6 6 ",
"6 6 6 7 7 7 7 7 7 7 7 7 O :.g.m.B.& N.V.= V.V.& = @ ..' | 4.O 7 7 7 7 7 7 7 7 7 7 7 ",
"6 6 7 7 7 7 7 7 7 7 7 7 O :.g.M.V.Z.X X M.V.V.C.( @ ..m | 4.O 7 7 7 7 7 7 7 7 7 7 5 ",
"7 7 7 7 5 5 8 5 5 8 8 8 O :.g.M.V.M.B.A.S.b.A.h.% % % % % 4.O 7 7 5 8 8 5 8 8 8 8 8 ",
"6 7 7 5 5 8 8 8 8 8 8 8 O >.g.M.B.M.M.@ & @ @ @ % 4 4 % % 4.O 5 5 8 8 8 8 8 8 8 8 8 ",
"8 8 7 7 7 8 6 6 6 8 6 6 O >.g.m.B.u.V.m.B.V.c.m.% 3 3 3 3 3.O 7 7 8 6 6 6 8 8 6 6 6 ",
"7 7 7 7 7 7 7 6 6 6 6 6 O >.g.% % % M.V.X V.X X k.i.;.{ / 2.O 7 7 7 7 7 6 6 6 6 6 6 ",
"7 8 8 8 7 7 7 7 7 6 6 6 % % % % % % m.V.M.V.M.d.x.@.} ' } 2.O 8 8 7 7 7 7 7 6 6 6 7 ",
"7 7 7 7 8 8 7 7 7 7 7 % % 4 % 4 4 % V.V.V.V.M.a.k.p.} ) #.] O 7 7 8 8 7 7 7 7 7 7 7 ",
"7 7 7 7 7 7 7 7 7 7 7 % 4 4 4 4 3 % % v c b t u r e 9 < 1 2 O 7 7 7 7 7 7 7 7 7 7 7 ",
"6 6 6 6 7 7 7 7 7 7 7 7 O 3 6.3 3 7.7.8.9.9.0.% % % % % M N O 6 6 7 7 7 7 7 7 7 7 7 ",
"6 7 7 7 % % % 7 7 7 7 7 O @ & l l p p i i a % % 4 % % % % % % % 7 7 7 7 7 7 7 7 7 7 ",
"8 8 % % 4 4 % % % % % 5 5 O & , , > > > > % % % 4 4 % 4 3 % 4 % % 7 % % 7 5 5 8 5 5 ",
"8 8 % % 3 3 % 4 4 4 % % 5 5 O O O O O O % % % % 3 3 3 4 3 4 4 4 % % 4 4 % % % 8 8 5 ",
"7 5 5 % 3 3 3 4 4 4 % % % 8 8 8 8 8 8 8 % 3 3 % 3 3 3 3 3 4 4 4 3 % 3 4 4 3 % 8 8 8 ",
"8 5 8 8 3 3 3 3 3 3 3 3 3 8 8 7 7 7 8 6 6 8 3 3 3 3 3 3 3 3 3 3 3 3 3 3 3 3 3 8 6 6 ",
"8 8 8 7 7 7 8 7 7 6 6 6 6 7 7 7 6 6 6 6 6 6 7 7 7 7 8 8 7 8 8 7 7 7 7 8 7 6 6 6 6 6 ",
"7 8 7 7 7 7 7 7 7 6 6 6 6 6 6 7 6 6 7 7 6 6 7 7 7 7 8 7 7 7 8 7 7 7 7 7 7 6 6 6 6 6 ",
"7 7 7 7 7 7 6 6 6 7 7 6 7 6 6 6 7 6 7 7 7 7 7 7 7 7 6 6 7 7 7 7 7 7 7 6 6 7 7 7 6 7 "
};
