/* XPM */
static char *e6069455c9b348588e30468f798acaa8Yv54f27OgnOPSxcK[] = {
/* columns rows colors chars-per-pixel */
"42 42 148 2 ",
"   c #00000A",
".  c #040614",
"X  c #05041A",
"o  c #03022D",
"O  c #080229",
"+  c #0E092E",
"@  c #161C2E",
"#  c #040231",
"$  c #0A0531",
"%  c #00063D",
"&  c #56001B",
"*  c #7A0D16",
"=  c #440135",
"-  c #000849",
";  c #02294E",
":  c #003049",
">  c #003B4E",
",  c #012B51",
"<  c #003C50",
"1  c #02096B",
"2  c #000373",
"3  c #00107E",
"4  c #053E6B",
"5  c #4F0247",
"6  c #500951",
"7  c #67024B",
"8  c #7F1B44",
"9  c #004143",
"0  c #024A6A",
"q  c #02556D",
"w  c #125D6A",
"e  c #054F71",
"r  c #025373",
"t  c #055777",
"y  c #10557B",
"u  c #1D6074",
"i  c #227879",
"p  c #5A7D53",
"a  c #A2091B",
"s  c #89093D",
"d  c #B11837",
"f  c #AF642C",
"g  c #F35B3C",
"h  c #E86F36",
"j  c #EE7A38",
"k  c #B21646",
"l  c #9F3647",
"z  c #B52843",
"x  c #D13B55",
"c  c #C44454",
"v  c #DA4155",
"b  c #E85A48",
"n  c #F34C5E",
"m  c #E0725A",
"M  c #F77359",
"N  c #EF586B",
"B  c #1A8F7E",
"V  c #728844",
"C  c #679175",
"Z  c #79A863",
"A  c #FB952D",
"S  c #FC8F38",
"D  c #FB9539",
"F  c #FFC537",
"G  c #9BB94E",
"H  c #BFBA5B",
"J  c #080F88",
"K  c #011382",
"L  c #051D94",
"P  c #001898",
"I  c #002085",
"U  c #00248C",
"Y  c #0026B8",
"T  c #045C80",
"R  c #0626C3",
"E  c #032FC9",
"W  c #013BCF",
"Q  c #003CD5",
"!  c #043FDA",
"~  c #0140D2",
"^  c #0543DD",
"/  c #0243E1",
"(  c #088C87",
")  c #078D8E",
"_  c #098290",
"`  c #078D90",
"'  c #0A9294",
"]  c #0D9993",
"[  c #218E84",
"{  c #01A68E",
"}  c #05A690",
"|  c #03AD90",
" . c #15A594",
".. c #1AA296",
"X. c #03B193",
"o. c #02B49B",
"O. c #09B699",
"+. c #06BB99",
"@. c #0BBD9B",
"#. c #12B998",
"$. c #26A08B",
"%. c #23B19F",
"&. c #30B396",
"*. c #09BFA6",
"=. c #07C09D",
"-. c #0BC09D",
";. c #14C49C",
":. c #00C2A4",
">. c #0CC2A3",
",. c #0BCEA9",
"<. c #14CBA6",
"1. c #2CDCAE",
"2. c #3AE8B7",
"3. c #50DFB6",
"4. c #59E4BC",
"5. c #4BF6C8",
"6. c #54F9C5",
"7. c #75F4C6",
"8. c #A4849D",
"9. c #AA819C",
"0. c #AA95A1",
"q. c #B69AA1",
"w. c #BAAEB4",
"e. c #C08CA2",
"r. c #CDB5AF",
"t. c #CDA5B0",
"y. c #CFB4B1",
"u. c #D0B5B4",
"i. c #D5C4BE",
"p. c #ECBBC5",
"a. c #83F6C9",
"s. c #8BFDCD",
"d. c #91FFDE",
"f. c #EADFCF",
"g. c #EEE9CF",
"h. c #EFEAD9",
"j. c #F1E9D5",
"k. c #FFEBDA",
"l. c #CDCDE2",
"z. c #CDD2EA",
"x. c #D9FFFF",
"c. c #FFF6E5",
"v. c #FFF8E5",
"b. c #F4F8EC",
"n. c #FFF9EA",
"m. c #FEFDF5",
"M. c #F5F9FA",
"N. c #FEFEFE",
/* pixels */
"G G G G G G G Z Z Z Z Z Z Z Z Z Z G G G G G G G G G G G G G G G G G G G Z Z Z Z Z Z ",
"G H H H G G G G G Z Z Z G G Z Z Z Z Z Z H H G G G G G G G G H H H G G G G G Z Z Z G ",
"H H G H H H G G G G G G G G Z Z G o o o o o o # o G G G G H H G H H G G G G G G G G ",
"G G G G G G G G G G G G G G G G   D b h S D b s k o H Z G G G G G G G G G G G G G G ",
"Z G G G G G G G G G G G G G G G   5 = 8 7 6 $ o # o Z Z Z Z G G G G G G G G G G G G ",
"Z G G G G G G G G G G G G G G G   A b j F F M s k o Z Z Z Z G G G G G G G G G G G G ",
"G G G G G G G G G G C C G G C C   X o o o o o # o # G Z G G G G G G G G G G G C C G ",
"H H G G C C C C C C H H C C H H H $ O.:.:.r r e # G H H H H H G G C C G C C C H H C ",
"H G C C C H C C H C H H H H H H H $ O.:.:.o.} r # H H H H H G G C H C C C C C H H H ",
"H C H H H H H H H H H Z Z H H G G o o o o o o o o G G G G H C H H H H H H H H H Z Z ",
"H H H G G G H G G Z Z Z Z G G G Z o *...&.&.$.u + G H H G H H G G G G H G Z Z Z Z Z ",
"G H G G G G G G G Z Z Z Z Z Z G + i *. .;.;.| r y + H G G G H G G G G G G Z Z Z Z Z ",
"G G G G G G Z Z Z G G Z G Z Z Z + 9 >. .;.;.| r T + Z Z G G G G G G G Z Z G G G Z G ",
"G G G G G G G Z Z G G G G G Z Z + ] x. .;.;.X.t 4 + Z Z G G G G G G G G Z G G G G G ",
"Z G G H H H H H H H G G G G Z Z + d.M.%.6.6.X.q 0 + Z Z Z Z G G H H H H H H H G G G ",
"Z Z G G H H H H H Z Z Z Z Z Z Z   x.7.7.-.-.} o.r X Z Z Z Z Z G G H H H H Z Z Z Z Z ",
"G G H H H H H G G G Z Z Z Z Z o q x.a.s.>.>.{ +._ ; $ C C G G H H H H H G G G Z Z Z ",
"G H H H H H H G G G G Z Z Z   B q 5.4.a.=.@.@.| ( ; t   C G H H H H H G G G G G Z Z ",
"H G G G G G H H H G G G G G   [ w 6.3.s.@.@.#.| ( , t   H H G G G G H H H G G G G G ",
"H H H G G G H G G G G G G G   % - P P P U U U I 1 - -   H H H G G G G H G H G G G G ",
"H H H G H H H G G G G G G G   w.w.N.N.N.N.N.N.m.b.0.i.  H H H H G H H G G G G G G G ",
"H G H H H H G G G G G G G G   t.t.v.v.c.n.n.c.v.k.e.p.  H H G H H H H G G G G G G G ",
"G G G G G G Z Z Z Z Z Z Z G   L L Q ~ ~ W W Q W R 2 J   G G G G G G Z Z Z Z Z Z Z Z ",
"G G G G G Z Z Z Z Z Z Z Z H   3 z.Q N.N.N.Q Q N.Y l.J   G G G G G G Z Z Z Z Z Z Z Z ",
"Z Z Z G G G G G G G G G G G   3 z.Q N.W N.Q Q N.Y l.J   Z Z Z G G G G G G G G G G G ",
"Z Z G G G G G G G G G G C C   3 z.Q N.N.N.Q N.N.Y l.J   G Z Z G G G G G G G G G G C ",
"G G G G C C H C C H H H H H   3 K ! ^ ^ / / / E @ @ @ @ @ G G G G C H H C H H H H H ",
"Z G G C C H H H H H H H H H   0.f m.m.x N l v j.@ V V @ @ Z G C C H H H H H H H H H ",
"H H G G G H Z Z Z H Z Z Z Z   q.h m.m.c n d M j.@ p p p p H H G G H Z Z Z H H Z Z Z ",
"G G G G G G G Z Z Z Z Z Z Z   @ @ @ m.z * & a j.M.2 r.  G G G G G G G G Z Z Z Z Z Z ",
"G H H H G G G G G Z Z Z @ @ @ @ @ @ m.. m.. + j.g 9.y.  G G H H H G G G G G Z Z Z G ",
"G G G G H H G G G G G @ @ V @ V V @ m.N.  O N.g.m 8.u.  G G G G G H H G G G G G G G ",
"G G G G G G G G G G G @ V V V V p @ @ m.m.N.m.h.f.8.u.  G G G G G G G G G G G G G G ",
"Z Z Z Z G G G G G G G G G p   p p R R R R R R @ @ @ @ @ Z Z Z Z Z G G G G G G G G G ",
"Z G G G @ @ @ G G G G G G G   : : X.<.<.o.o.@ @ V @ @ @ @ @ @ @ G G G G G G G G G G ",
"H H @ @ V V @ @ @ @ @ C C C   < < ,.1.2.>.@ @ @ V V @ V p @ V @ @ G @ @ G C C H C C ",
"H H @ @ p p @ V V V @ @ C C   > > ) ` ' @ @ @ @ p p p V p V V V @ @ V V @ @ @ H H C ",
"G C C @ p p p V V V @ @ @ H   > > ) ` ' @ p p @ p p p p p V V V p @ p V V p @ H H H ",
"H C H H p p p p p p p p p H H               p p p p p p p p p p p p p p p p p H Z Z ",
"H H H G G G H G G Z Z Z Z G G G Z Z Z Z Z Z G G G G H H G H H G G G G H G Z Z Z Z Z ",
"G H G G G G G G G Z Z Z Z Z Z G Z Z G G Z Z G G G G H G G G H G G G G G G Z Z Z Z Z ",
"G G G G G G Z Z Z G G Z G Z Z Z G Z G G G G G G G G Z Z G G G G G G G Z Z G G G Z G "
};
