/* XPM */
static char *_78f0fb98b384004b256af37a4fcfbbcRUpQ6ClgdISBWzqF[] = {
/* columns rows colors chars-per-pixel */
"64 64 194 2 ",
"   c #010006",
".  c #01000C",
"X  c #010014",
"o  c #02011B",
"O  c #0E0E19",
"+  c #020225",
"@  c #060922",
"#  c #0D0924",
"$  c #03022C",
"%  c #0A0929",
"&  c #110028",
"*  c #171427",
"=  c #161C2E",
"-  c #030233",
";  c #070837",
":  c #020239",
">  c #2F2C3D",
",  c #020244",
"<  c #000C44",
"1  c #090844",
"2  c #02024B",
"3  c #091352",
"4  c #242D56",
"5  c #252E58",
"6  c #29335C",
"7  c #08177F",
"8  c #302E6B",
"9  c #5A7D53",
"0  c #6F6C71",
"q  c #728844",
"w  c #679175",
"e  c #79A863",
"r  c #9BB94E",
"t  c #BFBA5B",
"y  c #112E86",
"u  c #14398C",
"i  c #082F9D",
"p  c #05339C",
"a  c #073B9C",
"s  c #3B3880",
"d  c #001EB6",
"f  c #062FA1",
"g  c #0238A5",
"h  c #083AA3",
"j  c #0023B4",
"k  c #002AB7",
"l  c #385F96",
"z  c #3E6196",
"x  c #3D619B",
"c  c #0447AA",
"v  c #1455AF",
"b  c #0859B8",
"n  c #1452B3",
"m  c #314DAC",
"M  c #2A43B3",
"N  c #0565B6",
"B  c #0771B1",
"V  c #4A4A81",
"C  c #5C5C85",
"Z  c #44618E",
"A  c #426396",
"S  c #62658F",
"D  c #0026C5",
"F  c #0029C6",
"G  c #002ACA",
"H  c #0030CF",
"J  c #084BC2",
"K  c #3D5AC8",
"L  c #0165C0",
"P  c #006DDC",
"I  c #1472DB",
"U  c #0076E3",
"Y  c #067CE8",
"T  c #4266CF",
"R  c #4D71D9",
"E  c #8D6F8C",
"W  c #8D718E",
"Q  c #866C90",
"!  c #8B7592",
"~  c #1A8DCF",
"^  c #1D95D1",
"/  c #3688DA",
"(  c #1AA6C7",
")  c #16B4DF",
"_  c #0383EB",
"`  c #0884EA",
"'  c #0399ED",
"]  c #1194EE",
"[  c #058AF7",
"{  c #0298F4",
"}  c #199EF5",
"|  c #15B4E0",
" . c #03B5FB",
".. c #0CB7F8",
"X. c #04BAFB",
"o. c #17BEFF",
"O. c #22ABFD",
"+. c #26B5FF",
"@. c #29B5FF",
"#. c #27B8FF",
"$. c #6AA2D1",
"%. c #4898EC",
"&. c #03C3FD",
"*. c #05CEFE",
"=. c #16CBFA",
"-. c #12CFFD",
";. c #0AD2FF",
":. c #2FCEF1",
">. c #4BE4F0",
",. c #43EEFA",
"<. c #44F1F9",
"1. c #5BF5FA",
"2. c #6BEEFF",
"3. c #888787",
"4. c #898795",
"5. c #9D849A",
"6. c #9B969A",
"7. c #A0869C",
"8. c #A68B9E",
"9. c #9392A6",
"0. c #A087A2",
"q. c #A58CA2",
"w. c #A98DA3",
"e. c #AC97A6",
"r. c #A59BA4",
"t. c #AE97AA",
"y. c #B299A4",
"u. c #B197AB",
"i. c #B39AAC",
"p. c #B99EAB",
"a. c #B29AB0",
"s. c #ADA7A6",
"d. c #B7A3AC",
"f. c #B1AEA9",
"g. c #ABABB5",
"h. c #A6A7B9",
"j. c #A5AAB9",
"k. c #B6A9B8",
"l. c #BEBCBB",
"z. c #C4B2AF",
"x. c #C1ADB5",
"c. c #C6B4B4",
"v. c #C9B5B4",
"b. c #C6B9BB",
"n. c #C7C5B5",
"m. c #A9AEC1",
"M. c #AAB1C3",
"N. c #C6B1C5",
"B. c #C9B3C6",
"V. c #CAB5CA",
"C. c #91DBED",
"Z. c #82E5F9",
"A. c #8BF5FE",
"S. c #92F5FE",
"D. c #93F8FE",
"F. c #AAFBFF",
"G. c #C2C4C4",
"H. c #C6C4CB",
"J. c #DDD4C6",
"K. c #DCD9CC",
"L. c #D9D6D0",
"P. c #DAD9D7",
"I. c #E1D8C6",
"U. c #E2D7C8",
"Y. c #E4DACB",
"T. c #E9DECD",
"R. c #E3DED2",
"E. c #E9DFD4",
"W. c #E6E0CB",
"Q. c #E7E1D2",
"!. c #EAE2D3",
"~. c #EDE9D6",
"^. c #E2E1DC",
"/. c #EEEADA",
"(. c #F0E7D5",
"). c #F1EAD6",
"_. c #F2E7DB",
"`. c #F2ECDA",
"'. c #F4F1DE",
"]. c #CAFCFD",
"[. c #EBECE8",
"{. c #F4F3E2",
"}. c #FAF6E3",
"|. c #FCFAE6",
" X c #F5F4E9",
".X c #FAF6EC",
"XX c #F5F9EF",
"oX c #FDFCEA",
"OX c #E3FFFF",
"+X c #EBFEFE",
"@X c #F4F4F3",
"#X c #FEFDF4",
"$X c #F2FFFE",
"%X c #FEFEFB",
/* pixels */
"r r r r r r r r r r r e e e e e e e e e e e e e e e r r r r r r r r r r r r r r r r r r r r r r r r r r r r r e e e e e e e e e ",
"r r t t t r r r r r r r r r r r r e e e e e e e e e e e e e e e e e r r r r r r r r r r r r t t t r r r r r r r r r r r r e e e ",
"r r t t t t r r r r r r r r e e e e e r r e e e e e e e e e e t t e r r r r r r r r r r r r t t t t r r r r r r r r e e e e e r ",
"t t t r r t t t t r r r r r r r r r r r r r e e r r r r t r r t t t t r r r r r r r r r t t t r r t t t r r r r r r r r r r r r ",
"r r r r r r t t t r r r r r r r r r r r r r r r r r t t t t t t t t t r r r r r r r r r r r r r r r t t t r r r r r r r r r r r ",
"r r r r r r r r r r r r r r r r r r r r r r r r r e e e e e e e e e t t t t t t t e e r r r r r r r r r r r r r r r r r r r r r ",
"e e r r r r r r r r r r r r r r r r r r r r r r e e e e r e e e e e e e e e e e e e e e e e r r r r r r r r r r r r r r r r r r ",
"e e e e e e e e e r r r r r r r r r r r r r e e e e r r r r e e e e e e e e e e e e e e e e e e e e e e r r r r r r r r r r r r ",
"e e r r r r r r r r r r r r r r r r r r r r r r r r r r r r r r r e e r r e e e e e e e e e r r r r r r r r r r r r r r r r r r ",
"r r r r r r r r r r r r r r r w w w w r r r w w w r r r r t t r r e r r r r e r r e r r r r r r r r r r r r r r r r r w w w w r ",
"t t t r r r r r r r r r r w w t t w w w $ X X X X X X . . X . . . . . X X X o o + $ $ : : t t r r r r r r r r r r w w t t w w w ",
"t t t r r r w w w w r w w w w t t t t w + j.j.M.M.m.j.m.h.g.g.g.g.k.k.g.h.h.9.4.C C C S $ t t r r r w w w w r w w w w t t t t w ",
"t r r w r w w t t w w w t w w t t t t t $ - ; : 1 , , , , 2 , , , 2 2 2 , : : : : , : - $ r r w r w w t w w w w t w w t t t t t ",
"r r w w w w t t t w w t t t t t t t t ; $ < B %X]. .%X` _ ` _ ` ` ` ` Y Y I f i i p y : - & w w w w t t t w w t t t t t t t t t ",
"t w w t t t t t t t t t t t t t t e e - - C.%X%X#X%X%X>.,.,.,.,.<.<.<.=.-.=.' N N a a v - & w t t t t t t t t t t t t t t e e e ",
"t t t t t t r r r t t t r r r t t e e 1 u ( %X%.$.%X/ } O.@.@.+.+.+.#.] ] } { c c p h b u & t t t t r r t t t t r r r t t e e e ",
"t t t t r r r r r t t r r e e e e e e - v ) OX[ ^ $XU U U U _ _ _ _ [ U P Y { g g p h b n & t t r r r r r t t r r e e e e e e e ",
"r t t r r r r r r r r r r e e e e e e < v ) 1.-.:.].*.*.*.*.*.*.*.;.;.&.&.o.J b b g g b n & t r r r r r r r r r r e e e e e e e ",
"r r r r r r r r r r r e e e e e e e e o c.Q.%X#X%X#XoXoXoXoXoXoXoXoXoX/.Q.T.J.I.i.W ! p.B.& r r r r r r r r r e e e e e e e e e ",
"r r r r r r r r r e e e e r r r r e r o z.E.%X X X%X|.oXoXoXoXoXoXoX|./.).`.U.U.a.! Q d.V.& r r r r r r r e e e e r r r r e r r ",
"r r r r r r r r r r r e e r r r r r r X v.E.%X(.{.#XoXoXoXoXoX|.|.oXoX`.`.`.I.Y.a.0.8.y.V.& r r r r r r r r r e e r r r r r r r ",
"r r r r r r t t t r r r t t t r r r r X c.E.%X|.oX#XoXoX|.oXoXX oX6.  `.`.!.s.Y.i.0.0.t.V.& r r r r t t t r r r t t t r r r r r ",
"e r r r r t t t t t t t t t t t r r r X c.T.%X}.oX#X|.|.oXoX3.  #Xl.. 6.(.Q.x.Y.i.8.0.t.V.& r r r t t t t t t t t t t t r r r r ",
"e e e r r r t t t t t t t e e e e e e X c.T.%X|.#X#X|.|.oX#X+ oXoX|.oX- `.!.Y.Y.i.q.q.i.V.& e r r r t t t t t t t e e e e e e e ",
"e r r r r r r t t t t r e e r r e e e . c.T.%X%X%X#X|.|.X + #XoXoX|.|.|.$ * Y.Y.i.q.q.y.V.& r r r r r t t t t r e e r r e e e e ",
"r r r t t t t t t t t r r r r e e e e . c.Q.%X`.'.#X|.o - $ n.oXoX|.oX|.$ o ! T.i.q.7.i.V.& r t t t t t t t t r r r r e e e e e ",
"r r t t t t t t t t r r r r r r r e e   c.!.%X`.{.%XoX$ g.P.+ + #X|.oX; ^.W + T.i.q.5.u.V.& t t t t t t t t r r r r r r r e e e ",
"t t r r r r r t t t t t t r r r r r r   b.!.%XoX{.#X    L. X. $ K.3.  > (.3.+ T.a.q.q.y.V.& r r r r r t t t t t t r r r r r r r ",
"t t r r r r r r r t t t t r r r r r r   v.E.%X|..XoX  #X[.#X}.- f.0 + /.#XH.o Y.a.q.8.y.B.& r r r r r r t t t t t r r r r r r r ",
"t t t t r r r r r t t r r t r r r r r   b.E.%X}.|..X|.X X r.|.- #XH.+ !.# X Y.Y.t.w.q.y.N.& t t r r r r r t t r r t r r r r r r ",
"t t t t t r r t t r r r r r r r r r r   v.!.%X}.|.'.|.oXO $ $ oXoX X#X$ J.U.Y.U.i.W E p.N.& t t t r r t r r r r r r r r r r r r ",
"t t t t t r t t t t r r r r r r r r r   c.!.%X}.oX{.|.oXoXoXXX: : : + R./.!.Y.Y.a.w.w.y.N.& t t t r t t t t r r r r r r r r r r ",
"t r r t t t t t t r r r r r r r r r r   c.!.%XJ.K.3.$ /.!.!.s..X XoX#XY./.L.o Y.i.w.w.d.V.& r t t t t t t r r r r r r r r r r r ",
"r r r r r r r r r r r e e e e r r r r   c.!.%X}..X0 %X+ $ o #X|.|.P.+ + + + $ Y.a.q.w.p.V.& r r r r r r r r r e e e e r r r r r ",
"r r r r r r r r r e e e e e e e e e e . c.!.%X}..X#X[.o o X G.oXoXl.@ o o % + T.i.w.w.d.V.& r r r r r r e e e e e e e e e e e e ",
"r r r r r r r r e e e e e e e e e e e . c.!.%X}.oX%X@ #X%X%X# oXoX#X%X~.~.f.+ T.a.W W d.V.& r r r r r r e e e e e e e e e e e e ",
"r r e r r e e e e e r r r r r e e r r . c.!.%X}.oX%X%X+ $ + {.oXoXH.@ `.`.b.+ T.i.q.w.p.V.& e r r e e e e e r r r r r e e r r e ",
"e e e e r r r r r r r r r r r e r r r . c.!.%X}.oX%X-  X/.oX: oXoX|.oX- $ : + = = = w.p.V.& e e r r r r r r r r r r r e r r r r ",
"e e e r r r r r r r r r r r r r r r r . c.!.%X|.oX%X%XX o X |.oXoXoXoX#X#X4.= = = = = = = & e r r r r r r r r r r r r r r r r w ",
"r r r r r r r r r w w w r w w r r t t . c.Q.%X}.oX%X|.%X%X%X|.oXoXoXoX~.(.= = q q q = = = = r r r r r r w w w w r w w r r t t t ",
"r r r r r r w w w t t w w t t w t t t . c.Q.%X|.oX%X|..X#X%X@X@X[.[.%X^./.= = q 9 9 = 9 9 = r r r r w w t t t w w t t w t t t t ",
"e r r r w w w t t t t t t t t t t t t . v.Q.%X|..X%X|.|.4.$ - $ + $ $ $ ~.= = 9 9 9 9 9 9 = r r w w w t t t t t t t t t t t t t ",
"e e e t w t t t t t t t t t t t t t t X v.Q.%X}..X%X|.|.6.- $ $ #XoX+ $ `.!.= = 9 9 9 9 9 & e t w t t t t t t t t t t t t t t e ",
"t t t r r r r t t e e e e t t e e e e X v.Q.%X= = = = = oX}.oXoXoXoX'.}.`.!.U.Y.x.e.0.y.B.& t r r r r t e e e e e t t e e e e e ",
"r r r r r r r r r r r e e e e e e e e = = = = = = = = = = oXX . oX6.X X ).(.U.Y.x.e.5.6.N.& r r r r r r r r r e e e e e e e e e ",
"r r t t t r r r r r r r r r r r r e = = = = = = q q = = = oX    oXf.. . `._.v.Y.k.8.8.i.r.& t t t r r r r r r r r r r r r e e e ",
"r r t t t t r r r r r r r r e e e = = = q q = = q q q = = oX|.oXoX|.|.W.`._.k.Y.i.q.8.i.N.& t t t t r r r r r r r r e e e e e r ",
"t t t r r t t t t r r r r r r r r = = q q q q = q 9 9 = = = oXoXoX|.oXT.`.(.Y.U.i.8.8.d.r.& t r r t t t r r r r r r r r r r r r ",
"r r r r r r t t t r r r r r r r r = = 9 9 9 9 9 9 9 9 = 9 9 T R T K K M m = = = = 8 8 V s & r r r r t t t r r r r r r r r r r r ",
"r r r r r r r r r r r r r r r r r r r ; 9 9 j k 9 9 9 H G G F F G D d j = = = = = = = = 7 & r r r r r r r r r r r r r r r r r r ",
"e e r r r r = = = = = r r r r r r r r $ ~ Z.+X+X+X$XA.A.S.S.D.S.D.D.F.= = = q q = = = = = & = = = = = r r r r r r r r r r r r r ",
"e e e e e = = = = = = = = = = r r r r - 3 L Z...| 2.X.X. .X. . . ...:.= = q q q q = 9 9 = = = = = = = = r r r r r r r r r r r r ",
"e e r r = = = q q q = = = = = = = r r r $ - Z A A A z z x l l x x = = = = q q q q = q q 9 = = q q = = = r = = = = r r r r r r r ",
"r r r r = = q q q q = = q q = = = w w r r - 6 6 6 4 5 5 4 4 4 5 = = = = = q q q q 9 q q 9 = q q q q q = = = = = = = = = w w w r ",
"t t t r = = 9 9 9 9 = q q q q = = = = w w + + + + + + + + + + + = = 9 = = q 9 9 9 9 q q 9 q q q q q q = = q q q = = = = = w w w ",
"t t t r r = 9 9 9 9 9 q q q q = = = = = w w t t t t w r t t t = = 9 9 9 = = 9 9 9 9 9 9 9 q q q q q 9 9 = 9 9 q = q 9 = = t t w ",
"t r r w r 9 9 9 9 9 9 9 9 q q = 9 9 9 = t t t t t t t t t t t = = 9 9 9 9 9 9 9 9 9 9 9 9 9 9 9 9 9 9 9 9 9 9 9 9 9 9 9 = = t t ",
"r r w w w w 9 9 9 9 9 9 9 9 9 9 9 9 9 9 t t t t t t t t t t t t t t 9 9 9 9 9 9 9 9 9 9 9 9 9 9 9 9 9 9 9 9 9 9 9 9 9 9 9 t t t ",
"t w w t t t t t t t t t t t t t t e e e t t t r r r r t t e e e t t t t t t r r r r r r t w w t t t t t t t t t t t t t t e e e ",
"t t t t t t r r r t t t r r r t t e e e e r t r r r r r e e e e t t t t r r r r r r t t t t t t t t r r t t t t r r r t t e e e ",
"t t t t r r r r r t t r r e e e e e e e r r r r r e e e e e e e e r r r r r r r t t r r t t t t r r r r r t t r r e e e e e e e ",
"r t t r r r r r r r r r r e e e e e e e e e e r e e e e r r e e e r r r r r r t t r r r r t t r r r r r r r r r r e e e e e e e ",
"r r r r r r r e e e e e e e r r e e e e e e e e e e e e r r r r r r r r r r r r r r r r r r r r r r r e e e e e e e r r e e e e ",
"r r r r r r r r r e e e e r r r r e r r e e e e e r e e r r r r r r r r r r r r e e r r r r r r r r r r r e e e e r r r r e r r "
};
