/* XPM */
static char *_733839301749[] = {
/* columns rows colors chars-per-pixel */
"64 64 44 1 ",
"  c #E4A672",
". c #E3A570",
"X c #DB965D",
"o c #D99359",
"O c #E2A36E",
"+ c #E1A16B",
"@ c #E1A06A",
"# c #DA955C",
"$ c #E2A26D",
"% c #DE9B64",
"& c #D89259",
"* c #DB975E",
"= c #E3A571",
"- c #E4A671",
"; c #DD9A63",
": c #DA955B",
"> c #D79158",
", c #C37B53",
"< c #BF7752",
"1 c #DA945A",
"2 c #CF8856",
"3 c #C77F54",
"4 c #C67E54",
"5 c #BA7251",
"6 c #B86F50",
"7 c #CB8355",
"8 c #D18A57",
"9 c #C27A53",
"0 c #BD7451",
"q c #CE8756",
"w c #D48D58",
"e c #C57D54",
"r c #BB7251",
"t c #D08A57",
"y c #D38D5A",
"u c #BD7551",
"i c #B97050",
"p c #E09F6A",
"a c #D69058",
"s c #BF7652",
"d c #DB965E",
"f c #C57E55",
"g c #DD9B64",
"h c #CC8558",
/* pixels */
"      .XooooooX.           .XooooooX.           .XooooooX.      ",
"    O+@#oooooo#@++$     $++@#oooooo#@++$     $++@#oooooo#@+O    ",
"    %oo&&&&&&&&ooo*=---=*ooo&&&&&&&&ooo*=---=*ooo&&&&&&&&oo%    ",
"   ;:o>,<<<<<<,>oo1*****1oo>,<<<<<<,>oo1*****1oo>,<<<<<<,>o:;   ",
" O%:234566666654337ooooo7334566666654337ooooo733456666665432:%O ",
" +o8966666666666660q222q0666666666666660q222q0666666666666698o+ ",
".@&<66666666666666666666666666666666666666666666666666666666<&@.",
"X#&<66666666666666666666666666666666666666666666666666666666<&#X",
"ower66666666666666666666666666666666666666666666666666666666rewo",
"ot666666666666666666666666666666666666666666666666666666666666to",
"ot666666666666666666666666666666666666666666666666666666666666to",
"ot666666666666666666666666666666666666666666666666666666666666to",
"ot666666666666666666666666666666666666666666666666666666666666to",
"ot666666666666666666666666666666666666666666666666666666666666to",
"Xyui66666666666666666666666666666666666666666666666666666666iuyX",
".pas66666666666666666666666666666666666666666666666666666666sap.",
" +&<66666666666666666666666666666666666666666666666666666666<&+ ",
" +&<66666666666666666666666666666666666666666666666666666666<&+ ",
" $dfr666666666666666666666666666666666666666666666666666666rfd$ ",
"  =d36666666666666666666666666666666666666666666666666666663d=  ",
"  -*36666666666666666666666666666666666666666666666666666663*-  ",
"  -*36666666666666666666666666666666666666666666666666666663*-  ",
"  -*36666666666666666666666666666666666666666666666666666663*-  ",
"  =d36666666666666666666666666666666666666666666666666666663d=  ",
" $dfr666666666666666666666666666666666666666666666666666666rfd$ ",
" +&<66666666666666666666666666666666666666666666666666666666<&+ ",
" +&<66666666666666666666666666666666666666666666666666666666<&+ ",
".pas66666666666666666666666666666666666666666666666666666666sap.",
"Xyui66666666666666666666666666666666666666666666666666666666iuyX",
"ot666666666666666666666666666666666666666666666666666666666666to",
"ot666666666666666666666666666666666666666666666666666666666666to",
"ot666666666666666666666666666666666666666666666666666666666666to",
"ot666666666666666666666666666666666666666666666666666666666666to",
"ot666666666666666666666666666666666666666666666666666666666666to",
"ot666666666666666666666666666666666666666666666666666666666666to",
"Xyui66666666666666666666666666666666666666666666666666666666iuyX",
".pas66666666666666666666666666666666666666666666666666666666sap.",
" +&<66666666666666666666666666666666666666666666666666666666<&+ ",
" +&<66666666666666666666666666666666666666666666666666666666<&+ ",
" $dfr666666666666666666666666666666666666666666666666666666rfd$ ",
"  =d36666666666666666666666666666666666666666666666666666663d=  ",
"  -*36666666666666666666666666666666666666666666666666666663*-  ",
"  -*36666666666666666666666666666666666666666666666666666663*-  ",
"  -*36666666666666666666666666666666666666666666666666666663*-  ",
"  =d36666666666666666666666666666666666666666666666666666663d=  ",
" $dfr666666666666666666666666666666666666666666666666666666rfd$ ",
" +&<66666666666666666666666666666666666666666666666666666666<&+ ",
" +&<66666666666666666666666666666666666666666666666666666666<&+ ",
".pas66666666666666666666666666666666666666666666666666666666sap.",
"Xyui66666666666666666666666666666666666666666666666666666666iuyX",
"ot666666666666666666666666666666666666666666666666666666666666to",
"ot666666666666666666666666666666666666666666666666666666666666to",
"ot666666666666666666666666666666666666666666666666666666666666to",
"ot666666666666666666666666666666666666666666666666666666666666to",
"ot666666666666666666666666666666666666666666666666666666666666to",
"ot666666666666666666666666666666666666666666666666666666666666to",
"Xyui66666666666666666666666666666666666666666666666666666666iuyX",
".pas66666666666666666666666666666666666666666666666666666666sap.",
" +&<66666666666666666666666666666666666666666666666666666666<&+ ",
" Oghs6666666666666r33333r66666666666666r33333r6666666666666shgO ",
"   ;h<si666666is<<fd***df<<si666666is<<fd***df<<si666666is<h;   ",
"    g&au666666ua&&d=---=d&&au666666ua&&d=---=d&&au666666ua&g    ",
"    O+pyttttttyp++$     $++pyttttttyp++$     $++pyttttttyp+O    ",
"      .XooooooX.           .XooooooX.           .XooooooX.      "
};
