/* XPM */
static char *_3a5f673101f4b3dcc598367d1a81257YzAP68645fPX9c3I[] = {
/* columns rows colors chars-per-pixel */
"32 32 51 1 ",
"  c #AD644D",
". c #B1684F",
"X c #B56B4F",
"o c #B56C4F",
"O c #B86F4D",
"+ c #B9704D",
"@ c #BD734F",
"# c #BF764E",
"$ c #B56B50",
"% c #B76E50",
"& c #B86F50",
"* c #BA7150",
"= c #BD7350",
"- c #BE7651",
"; c #C0764E",
": c #C37A4F",
"> c #C37B53",
", c #C77E52",
"< c #C88053",
"1 c #CF8652",
"2 c #CB8354",
"3 c #CC8354",
"4 c #CE8654",
"5 c #CF8854",
"6 c #D08953",
"7 c #D78F54",
"8 c #D08958",
"9 c #D38D5B",
"0 c #D79056",
"q c #D99155",
"w c #D5915C",
"e c #DC9658",
"r c #D9955F",
"t c #DD985A",
"y c #DF9A5F",
"u c #D99560",
"i c #DE9B64",
"p c #DF9D64",
"a c #E09D61",
"s c #E19F66",
"d c #E3A165",
"f c #E3A26B",
"g c #E4A369",
"h c #E3A26C",
"j c #E3A46D",
"k c #E5A66E",
"l c #E8A86C",
"z c #E4A673",
"x c #E6A872",
"c c #E5A874",
"v c #E6AA78",
/* pixels */
"zcjyetesfzvchfteetfhcvzfseteyjcz",
"csq<>>>57yda07,>>,70ady75>>><qsc",
"k1*X...&&,61**X..X**16,&&...X*1k",
"y-.&&&&%%X.Xo%&&&&%oX.X%%&&&&.-y",
"4$&&&&&&&&&&&&&&&&&&&&&&&&&&&&$4",
"4.&&&&&&&&&&&&&&&&&&&&&&&&&&&&.4",
"<.*&&&&&&&&&&&&&&&&&&&&&&&&&&*.<",
"i=o&&&&&&&&&&&&&&&&&&&&&&&&&&o=i",
"l#.&&&&&&&&&&&&&&&&&&&&&&&&&&.#l",
"x9o%&&&&&&&&&&&&&&&&&&&&&&&&%o9x",
"vs+%&&&&&&&&&&&&&&&&&&&&&&&&%+sv",
"cuO%&&&&&&&&&&&&&&&&&&&&&&&&%Ouc",
"k>.&&&&&&&&&&&&&&&&&&&&&&&&&&.>k",
"g#.&&&&&&&&&&&&&&&&&&&&&&&&&&.#g",
"5X&&&&&&&&&&&&&&&&&&&&&&&&&&&&X5",
"4.&&&&&&&&&&&&&&&&&&&&&&&&&&&&.4",
"4.&&&&&&&&&&&&&&&&&&&&&&&&&&&&.4",
"5X&&&&&&&&&&&&&&&&&&&&&&&&&&&&X5",
"g#.&&&&&&&&&&&&&&&&&&&&&&&&&&.#g",
"k>.&&&&&&&&&&&&&&&&&&&&&&&&&&.>k",
"cuO%&&&&&&&&&&&&&&&&&&&&&&&&%Ouc",
"vs+%&&&&&&&&&&&&&&&&&&&&&&&&%+sv",
"x9o%&&&&&&&&&&&&&&&&&&&&&&&&%o9x",
"l#.&&&&&&&&&&&&&&&&&&&&&&&&&&.#l",
"i=o&&&&&&&&&&&&&&&&&&&&&&&&&&o=i",
"<.*&&&&&&&&&&&&&&&&&&&&&&&&&&*.<",
"4X&&&&&&&&&&&&&&&&&&&&&&&&&&&&X4",
"<.*&&&&&&&&&&&&&&&&&&&&&&&&&&*.<",
"wo%&&&&&&%o%&&&&&&&&%o%&&&&&&%ow",
"l: %*&*o.o+OXX&&&&XXO+o.o*&*% :l",
"ci:o.X.@;9pr>#X..X#>rp9;@.X.o:ic",
"zclw243ilxvckf8448fkcvxli342wlcz"
};
