/* XPM */
static char *a8e7ce51378c4ab7b55bb8852545d5918ULk6AmBIQB0Mgn4[] = {
/* columns rows colors chars-per-pixel */
"32 32 27 1 ",
"  c #3D8546",
". c #3D8748",
"X c #3F8748",
"o c #3C8848",
"O c #3D8948",
"+ c #3D8949",
"@ c #3E8948",
"# c #3E8849",
"$ c #3E8A49",
"% c #3F8A49",
"& c #3F894A",
"* c #3E8A4A",
"= c #408849",
"- c #41894A",
"; c #408A4B",
": c #428A4B",
"> c #448C4D",
", c #468E4F",
"< c #479152",
"1 c #499152",
"2 c #489253",
"3 c #4A9253",
"4 c #499354",
"5 c #4B9354",
"6 c #4C9254",
"7 c #4D9355",
"8 c #549A5C",
/* pixels */
"87772242222222222222222224227778",
",X::&:&&::::::::::::::::&&::::X,",
", X&&&XX&&&&&&@@&&&&@&&&XX&&&X ,",
"<&&&&&&&&&&&&&&@&&&@@@&&&&&&&&&<",
"4&&&&&o&&&&&&&&&@@@@&&&@&&&o&&&4",
"2&&:&&&&&&&&&&&&&&&&&&&&&&&&:&&<",
"2XX&&&&&&&@@@@@@@@&&&&@@&&&&&XX2",
"4:X:&&&&&&@@@@@@@@@&&&@@&&&&:X:4",
"2:&&@&@@&&@@&&&&@&&&&&@@@@&&@@:2",
"2:&&@&@@@@@@&&&&@@&&&&@@@@&&&@:2",
"2:&&@&&@@@@@@@&&@@@@&&@@@@&&&&:2",
"2:&@@&&&@@@@@&&&@@@@&&@@@@&&&&:2",
"2:@@&&&&@@&&@@@@&&&@@@@@@@&&&&:2",
"2:&@&&&&@@&&@@@@&&@@@@@@@@&&&&:2",
"2:&&&&@@@@&&&&@@&&&&@@@@&&&&&&:2",
"2:&&@&@@@@&&&&&@&&&&@@&&&&&&&&:2",
"2:&&&&&@&&&&&&@@@@&&@@@@&&&@@@:2",
"2:&&&&@@&&&&&&@@&@&&@@@@&&&&@@:2",
"2:@&@&@@@@@@&@@@&&&&&@@@&&&&@@:2",
"2:@&@&@@@@@@@@@@&&&&&@@@&&&@@@:2",
"2:@@@&&&@@@@@@@@&&@@&&&&@@&@&&:2",
"2:@@&&&&&&@@@@@@&@@@&&&&@@&@&&:2",
"2:@@&&&&&&&&@&@@&&@@@@&&@@&&&&:2",
"2:@@@&&&&&&&&&@@&&@@@@@&@&&&&&:2",
"4:X:&&&&&&&&&&&@&&&&&&&@&&&&:X:4",
"2XX&&&&&&&&&&&&&&&@@&&&&&&&&&XX2",
"2&&:&&&&&&&&&&&&&&&&&&&&&&&&:&&2",
"4&&&&&&&@@@@&&&@@@@@&&&@&@&@&&&4",
"<&&&&&&&@@&&&&@@@@&&&&@@&&&&&&&<",
", X&&&XX@@&&&&@@@@&&&&@@XX&&&X >",
",X::::&&::::::::::::::::&&:&::X,",
"87772242222222222222222224227778"
};
