/* XPM */
static char *a47d724f183449b6ee93928a3a9e356eQxXrfwjMwoG6fb20[] = {
/* columns rows colors chars-per-pixel */
"64 64 194 2 ",
"   c black",
".  c #00000B",
"X  c #060616",
"o  c #04021A",
"O  c #070528",
"+  c #04032D",
"@  c #0D0B2D",
"#  c #161C2E",
"$  c #030231",
"%  c #0A0531",
"&  c #0A0A3A",
"*  c #100E31",
"=  c #100D3E",
"-  c #0F1035",
";  c #56001B",
":  c #7A0D16",
">  c #440135",
",  c #030A44",
"<  c #00064B",
"1  c #07094B",
"2  c #000550",
"3  c #02294E",
"4  c #003049",
"5  c #003B4E",
"6  c #012B51",
"7  c #033A52",
"8  c #35344B",
"9  c #060B6A",
"0  c #000276",
"q  c #00107D",
"w  c #053E6B",
"e  c #50064C",
"r  c #730F48",
"t  c #004B4D",
"y  c #054669",
"u  c #02566E",
"i  c #125D6A",
"p  c #044E73",
"a  c #0D4872",
"s  c #064979",
"d  c #035373",
"f  c #055576",
"g  c #025B78",
"h  c #10557B",
"j  c #0E686E",
"k  c #11716E",
"l  c #08637C",
"z  c #1D6074",
"x  c #227879",
"c  c #3E717B",
"v  c #5A7D53",
"b  c #A2091B",
"n  c #86093E",
"m  c #8C083C",
"M  c #B11837",
"N  c #C93D36",
"B  c #AF642C",
"V  c #DD5D36",
"C  c #FF4D3D",
"Z  c #F9563C",
"A  c #DD643D",
"S  c #E86E3C",
"D  c #F26F34",
"F  c #F57231",
"G  c #B11747",
"H  c #9F3647",
"J  c #B83347",
"K  c #CD2F4D",
"L  c #B74E5F",
"P  c #B4744B",
"I  c #CB4354",
"U  c #E75945",
"Y  c #E95A4A",
"T  c #F34C5E",
"R  c #E35757",
"E  c #E26645",
"W  c #EC7F4F",
"Q  c #E0725A",
"!  c #F6725B",
"~  c #EF586B",
"^  c #1A8F7E",
"/  c #728844",
"(  c #679175",
")  c #79A863",
"_  c #FB952D",
"`  c #FC8F38",
"'  c #FB9539",
"]  c #FFC537",
"[  c #9BB94E",
"{  c #BFBA5B",
"}  c #010E82",
"|  c #080F88",
" . c #011686",
".. c #051E94",
"X. c #001A99",
"o. c #002289",
"O. c #042BB6",
"+. c #0126B8",
"@. c #045C80",
"#. c #076A80",
"$. c #087489",
"%. c #0626C4",
"&. c #032FC9",
"*. c #013ACF",
"=. c #003CD5",
"-. c #0040D1",
";. c #0541DC",
":. c #0243E1",
">. c #088A87",
",. c #108C87",
"<. c #009385",
"1. c #179C8F",
"2. c #0A8390",
"3. c #078D90",
"4. c #0B9595",
"5. c #218E84",
"6. c #01A68E",
"7. c #03AD91",
"8. c #06AD97",
"9. c #16A493",
"0. c #1AA294",
"q. c #03B293",
"w. c #02B49C",
"e. c #09B39A",
"r. c #06BB99",
"t. c #0BBC9C",
"y. c #13B79A",
"u. c #26A08B",
"i. c #23B19F",
"p. c #30B396",
"a. c #0BBEA4",
"s. c #08BFA8",
"d. c #28B9AF",
"f. c #07C19E",
"g. c #14C49C",
"h. c #02C4A3",
"j. c #0CC2A2",
"k. c #0BCEA9",
"l. c #14C4A4",
"z. c #14CAA6",
"x. c #2CDCAE",
"c. c #37E8B8",
"v. c #50DFB6",
"b. c #7DD5BC",
"n. c #52E8BD",
"m. c #6AEFBB",
"M. c #54EDC5",
"N. c #54F9C6",
"B. c #77F5C7",
"V. c #76FFD5",
"C. c #A4849D",
"Z. c #AA819C",
"A. c #A6989A",
"S. c #A786A3",
"D. c #AA95A1",
"F. c #B69AA1",
"G. c #BDA2AC",
"H. c #BAAEB4",
"J. c #D9898D",
"K. c #EB978A",
"L. c #C08CA2",
"P. c #CAB1AF",
"I. c #CAA5B1",
"U. c #D0B4B4",
"Y. c #D5CEB9",
"T. c #C6B5C9",
"R. c #ECBBC5",
"E. c #82ECC8",
"W. c #82F3C7",
"Q. c #87FBC9",
"!. c #8BFDCD",
"~. c #95FDD6",
"^. c #9BF8E0",
"/. c #C0C8C1",
"(. c #F7CBC3",
"). c #E6DACD",
"_. c #EBE3CF",
"`. c #EEE9CF",
"'. c #EFEAD3",
"]. c #EFEADE",
"[. c #F1E9D5",
"{. c #FBEADC",
"}. c #FFF7D7",
"|. c #CDCEE2",
" X c #CDD2EA",
".X c #D2FFF7",
"XX c #F3EDEB",
"oX c #FFF8E5",
"OX c #FCF8E8",
"+X c #E1E7FE",
"@X c #EFFBFF",
"#X c #FDFDF5",
"$X c #F6FCFB",
"%X c #FEFFFE",
/* pixels */
"[ [ [ [ [ [ [ [ [ [ [ ) ) ) ) ) ) ) ) ) ) ) ) ) ) ) [ [ [ [ [ [ [ [ [ [ [ [ [ [ [ [ [ [ [ [ [ [ [ [ [ [ [ [ [ ) ) ) ) ) ) ) ) ) ",
"[ [ { { { [ [ [ [ [ [ [ [ [ [ [ [ ) ) ) ) ) ) ) ) ) ) + + + + + + + $ $ + [ [ [ [ [ [ [ [ [ { { { [ [ [ [ [ [ [ [ [ [ [ [ ) ) ) ",
"[ [ { { { { [ [ [ [ [ [ [ [ ) ) ) ) ) [ [ ) ) ) ) ) . ' U U S ` ' U m m G + [ [ [ [ [ [ [ [ { { { { [ [ [ [ [ [ [ [ ) ) ) ) ) [ ",
"{ { { [ [ { { { { [ [ [ [ [ [ [ [ [ [ [ [ [ ) ) [ [ . ' U U S ` ' U m m G + [ [ [ [ [ [ { { { [ [ { { { [ [ [ [ [ [ [ [ [ [ [ [ ",
"[ [ [ [ [ [ { { { [ [ [ [ [ [ [ [ [ [ [ [ [ [ [ [ [ . e > > r r e % + + $ + [ [ [ [ [ [ [ [ [ [ [ [ { { { [ [ [ [ [ [ [ [ [ [ [ ",
"[ [ [ [ [ [ [ [ [ [ [ [ [ [ [ [ [ [ [ [ [ [ [ [ [ ) . _ Y Y D ] ] ! n n G + { { { ) ) [ [ [ [ [ [ [ [ [ [ [ [ [ [ [ [ [ [ [ [ [ ",
") ) [ [ [ [ [ [ [ [ [ [ [ [ [ [ [ [ [ [ [ [ [ [ ) ) . X + + + + + + $ $ + $ ) ) ) ) ) ) ) ) [ [ [ [ [ [ [ [ [ [ [ [ [ [ [ [ [ [ ",
") ) ) ) ) ) ) ) ) [ [ [ [ [ [ [ [ [ [ [ [ [ ) ) ) ) [ % s s p d d d p p $ ) ) ) ) ) ) ) ) ) ) ) ) ) ) ) [ [ [ [ [ [ [ [ [ [ [ [ ",
") ) [ [ [ [ [ [ [ [ [ [ [ [ [ [ [ [ [ [ [ [ [ [ [ [ [ % s s p d d d p p $ ) ) ) ) ) ) ) ) ) [ [ [ [ [ [ [ [ [ [ [ [ [ [ [ [ [ [ ",
"[ [ [ [ [ [ [ [ [ [ [ [ [ [ [ ( ( ( ( [ [ [ ( ( ( [ [ % e.e.h.h.w.7.d d $ [ ) [ [ ) [ [ [ [ [ [ [ [ [ [ [ [ [ [ [ [ [ ( ( ( ( [ ",
"{ { { [ [ [ [ [ [ [ [ [ [ ( ( { { ( ( ( ( ( { { { ( [ % + + $ $ $ $ + + + [ [ [ [ [ [ [ { { { [ [ [ [ [ [ [ [ [ [ ( ( { { ( ( ( ",
"{ { { [ [ [ ( ( ( ( [ ( ( ( ( { { { { ( ( ( { { { { ( + w.w.0.g.l.7.g g + [ [ [ { { { { { { { [ [ [ ( ( ( ( [ ( ( ( ( { { { { ( ",
"{ [ [ ( [ ( ( { { ( ( ( { ( ( { { { { { { { { { { { { + s.s.0.p.p.u.z z @ [ { { { { { { { [ [ ( [ ( ( { ( ( ( ( { ( ( { { { { { ",
"[ [ ( ( ( ( { { { ( ( { { { { { { { { { { { { { { { { + s.s.0.p.p.u.z z @ [ [ [ [ [ [ [ [ [ ( ( ( ( { { { ( ( { { { { { { { { { ",
"{ ( ( { { { { { { { { { { { { { { ) ) ) { { { [ [ [ [ x a.a.9.g.g.7.d d h O [ [ [ [ [ [ { ( ( { { { { { { { { { { { { { { ) ) ) ",
"{ { { { { { [ [ [ { { { [ [ [ { { ) ) ) ) [ { [ [ [ [ t j.j.9.g.g.q.f f g + [ [ [ [ { { { { { { { { [ [ { { { { [ [ [ { { ) ) ) ",
"{ { { { [ [ [ [ [ { { [ [ ) ) ) ) ) ) ) [ [ [ [ [ ) o t j.j.9.g.g.7.d d @.+ [ [ { { [ [ { { { { [ [ [ [ [ { { [ [ ) ) ) ) ) ) ) ",
"[ { { [ [ [ [ [ [ [ [ [ [ ) ) ) ) ) ) ) ) ) ) [ ) ) + 4.j.j.9.g.g.q.g g w + [ { { [ [ [ [ { { [ [ [ [ [ [ [ [ [ [ ) ) ) ) ) ) ) ",
"[ [ [ [ [ [ [ [ [ [ [ ) ) ) ) ) ) ) ) ) ) ) ) ) ) ) + 4.j.j.9.g.g.q.g g w + [ [ [ [ [ [ [ [ [ [ [ [ [ [ [ [ [ ) ) ) ) ) ) ) ) ) ",
"[ [ [ [ [ [ [ [ [ ) ) ) ) [ [ [ [ ) [ [ ) ) ) ) ) X .X~.$X$Xi.N.N.q.u u y a X [ ) ) [ [ [ [ [ [ [ [ [ [ [ ) ) ) ) [ [ [ [ ) [ [ ",
"[ [ [ [ [ [ [ [ [ [ [ ) ) [ [ [ [ [ [ [ [ [ ) ) [ % OXd.#X#XV.t.t.t.<.<.p y O ) ) ) ) [ [ [ [ [ [ [ [ [ [ [ [ ) ) [ [ [ [ [ [ [ ",
"[ [ [ [ [ [ { { { [ [ [ { { { [ [ [ [ [ [ [ [ . . %Xc..XB.B.B.f.f.6.w.w.>.y d o o ) ) [ [ [ [ [ [ [ { { { [ [ [ { { { [ [ [ [ [ ",
") [ [ [ [ { { { { { { { { { { { [ [ [ [ [ [ + h.h.h.#Xm.W.W.!.j.j.6.r.r.2.$.d d d % ) ) ) [ [ [ [ { { { { { { { { { { { [ [ [ [ ",
") ) ) [ [ [ { { { { { { { ) ) ) ) ) ) ) ) ) + k k h.#Xm.W.W.!.j.j.6.r.r.2.$.u d d % ) ) ) ) ) [ [ [ { { { { { { { ) ) ) ) ) ) ) ",
") [ [ [ [ [ [ { { { { [ ) ) [ [ ) ) ) ) ) . k ^.^./.M.b.E.E.~.j.j.h.q.q.r.>.l d d 7   ) ) [ [ [ [ [ [ { { { { [ ) ) [ [ ) ) ) ) ",
"[ [ [ { { { { { { { { [ [ [ [ ) ) ) ) ) ) o y.c c 1.n.~.W.W.Q.j.f.f.h.h.e.2.g y y f O ( [ [ [ { { { { { { { { [ [ [ [ ) ) ) ) ) ",
"[ [ { { { { { { { { [ [ [ [ [ [ [ ) ) ) ) o ^ u u 1.q.N.n.n.Q.f.r.r.7.7.>.l g 3 3 f + ( [ [ { { { { { { { { [ [ [ [ [ [ [ ) ) ) ",
"{ { [ [ [ [ [ { { { { { { [ [ [ [ [ [ [ [ 8 5.i i 9.q.N.v.v.Q.t.t.y.7.7.>.l g 6 6 f O { { { [ [ [ [ [ { { { { { { [ [ [ [ [ [ [ ",
"{ { [ [ [ [ [ [ [ { { { { [ [ [ [ [ [ [ [ 8 5.i i 9.q.N.v.v.Q.t.t.y.7.7.>.g g 6 6 f O { { { [ [ [ [ [ [ { { { { { [ [ [ [ [ [ [ ",
"{ { { { [ [ [ [ [ { { [ [ { [ [ [ [ [ [ [ $ & , , ..X.X.X.X.X.o.o.o.o. .9 2 < < < < + { { { { { [ [ [ [ [ { { [ [ { [ [ [ [ [ [ ",
"{ { { { { [ [ { { [ [ [ [ [ [ [ [ [ [ [ [ $ H.H.H.%X%X%X%X%X%X%X%X%X#X#XOX].Y.D.D.Y.+ { { { { { { [ [ { [ [ [ [ [ [ [ [ [ [ [ [ ",
"{ { { { { [ { { { { [ [ [ [ [ [ [ [ [ [ [ $ I.I.I.OXoXoXoXoXoXOXOXoXoXoX{.{.(.L.L.R.+ { { { { { { [ { { { { [ [ [ [ [ [ [ [ [ [ ",
"{ [ [ { { { { { { [ [ [ [ [ [ [ [ [ [ [ [ & ......=.=.=.-.-.-.*.*.=.*.*.%.+.} 0 0 | % { { [ [ { { { { { { [ [ [ [ [ [ [ [ [ [ [ ",
"[ [ [ [ [ [ [ [ [ [ [ ) ) ) ) [ [ [ [ [ [ , q  X X%X%X=.%X%X%X%X=.=.%X%X+.%X+.|.|.| + [ [ [ [ [ [ [ [ [ [ [ [ ) ) ) ) [ [ [ [ [ ",
"[ [ [ [ [ [ [ [ [ ) ) ) ) ) ) ) ) ) ) ) [ , q  X X%X%X=.%X%X%X%X=.=.%X%X+.%X+.|.|.| + [ [ [ [ [ [ [ [ [ ) ) ) ) ) ) ) ) ) ) ) ) ",
"[ [ [ [ [ [ [ [ ) ) ) ) ) ) ) ) ) ) ) ) { - q  X X=.=.=.%X%X*.%X=.=.%X%X+.%X+.|.|.| + [ [ [ [ [ [ [ [ [ ) ) ) ) ) ) ) ) ) ) ) ) ",
"[ [ ) [ [ ) ) ) ) ) [ [ [ [ [ ) ) [ [ ) ) * q  X X%X%X=.%X%X=.%X=.=.%X%X+.%X+.|.|.| + ) [ [ ) [ [ ) ) ) ) ) [ [ [ [ [ ) ) [ [ ) ",
") ) ) ) [ [ [ [ [ [ [ [ [ [ [ ) [ [ [ [ [ @ q  . .=.%X=.%X%X=.%X=.=.%X%XO.%X+.|.|.| + ) ) ) ) ) [ [ [ [ [ [ [ [ [ [ [ ) [ [ [ [ ",
") ) ) [ [ [ [ [ [ [ [ [ [ [ [ [ [ [ [ ( ( * q  X X%X%X=.%X%X%X%X=.%X%X%X+.%X%X|.|.| + [ ) ) ) [ [ [ [ [ [ [ [ [ [ [ [ [ [ [ [ ( ",
"[ [ [ [ [ [ [ [ [ ( ( ( [ ( ( [ [ { { { ( * q  X X%X%X=.%X%X%X%X=.%X%X%X+.%X%X|.|.| + [ [ [ [ [ [ [ [ [ ( ( ( ( [ ( ( [ [ { { { ",
"[ [ [ [ [ [ ( ( ( { { ( ( { { ( { { { { { * q q q ;.;.;.;.;.;.:.:.:.&.&.O.9 9 # # # + [ [ [ [ [ [ [ ( ( { { { ( ( { { ( { { { { ",
") [ [ [ ( ( ( { { { { { { { { { { { { { { - T.T.T.$X$X%X$X$X$XR R $X@X@X@XXX# # # # # # # [ [ [ ( ( ( { { { { { { { { { { { { { ",
") ) ) { ( { { { { { { { { { { { { { { ) ) - D.D.P B V #X%X%XK ~ H I [.[.+X# # / / / # # # # ) { ( { { { { { { { { { { { { { { ) ",
"{ { { [ [ [ [ { { ) ) ) ) { { ) ) ) ) ) ) - F.F.W F D #X%X%XI T M ! '.'.+X# # / v v # v v # { [ [ [ [ { ) ) ) ) ) { { ) ) ) ) ) ",
"[ [ [ [ [ [ [ [ [ [ [ ) ) ) ) ) ) ) ) ) ) - F.F.W F D #X%X%XI T M ! '.'.+X# # v v v v v v # [ [ [ [ [ [ [ [ [ ) ) ) ) ) ) ) ) ) ",
"[ [ { { { [ [ [ [ [ [ [ [ [ [ [ [ ) ) ) ) - G.G.I.}.#X#X#X#XJ : ; b [.[.@X0 # # v v v v v [ { { { [ [ [ [ [ [ [ [ [ [ [ [ ) ) ) ",
"[ [ { { { { [ [ [ [ [ [ [ [ ) ) ) ) ) [ [ - G.# # # # # #X#X#XC C %X_._._.N J L S.P.% [ [ [ { { { { [ [ [ [ [ [ [ [ ) ) ) ) ) [ ",
"{ { { [ [ { { { { [ [ [ [ [ [ [ [ [ [ # # # # # # # # # # #XX #XX @ [.[.Z K.J.J.Z.U.% [ { { { [ [ { { { [ [ [ [ [ [ [ [ [ [ [ [ ",
"[ [ [ [ [ [ { { { [ [ [ [ [ [ [ [ [ # # # # # # / / # # # #X%X. O %X`.`.Q Y.A.S.C.U.+ [ [ [ [ [ [ [ { { { [ [ [ [ [ [ [ [ [ [ [ ",
"[ [ [ [ [ [ [ [ [ [ [ [ [ [ [ [ [ # # # / / # # / / / # # #X%X. O %X`.`.Q Y.A.C.C.U.+ [ [ [ [ [ [ [ [ [ [ [ [ [ [ [ [ [ [ [ [ [ ",
") ) [ [ [ [ [ [ [ [ [ [ [ [ [ [ [ # # / / / / # / v v # # # %X%X%X%X].]._.).I.C.C.U.$ ) ) ) [ [ [ [ [ [ [ [ [ [ [ [ [ [ [ [ [ [ ",
") ) ) ) ) ) [ [ [ [ [ [ [ [ [ [ [ # # v v v v v v v v # v v V V V A E E E # # # # K + ) ) ) ) ) ) ) [ [ [ [ [ [ [ [ [ [ [ [ [ [ ",
") ) [ [ [ [ [ [ [ [ [ [ [ [ [ [ [ [ [ [ v v q q v v v %.%.%.%.%.%.%.+.+.# # # # # # # # ) ) [ [ [ [ [ [ [ [ [ [ [ [ [ [ [ [ [ [ ",
"[ [ [ [ [ [ # # # # # [ [ [ [ ( ( ( ( [ [ = 4 4 4 ,.7.q.z.z.z.w.w.8.8.# # # / / # # # # # [ # # # # # [ [ [ [ [ [ [ [ ( ( ( ( [ ",
"{ { { [ [ # # # # # # # # # # { { ( ( ( ( = 4 4 4 ,.7.q.z.z.z.w.w.8.8.# # / / / / # v v # # # # # # # # [ [ [ [ [ ( ( { { ( ( ( ",
"{ { { [ # # # / / / # # # # # # # { { ( ( 1 5 5 5 >.7.k.x.x.c.j.j.# # # # / / / / # / / v # # / / # # # ( # # # # ( ( { { { { ( ",
"{ [ [ ( # # / / / / # # / / # # # { { { { < 5 5 5 >.4.a.e.e.8.w.# # # # # / / / / v / / v # / / / / / # # # # # # # # # { { { { ",
"[ [ ( ( # # v v v v # / / / / # # # # { { $ 5 5 5 j #.3.3.3.4.4.# # v # # / v v v v / / v / / / / / / # # / / / # # # # # { { { ",
"{ ( ( { { # v v v v v / / / / # # # # # { . 5 5 5 j #.3.3.3.4.# # v v v # # v v v v v v v / / / / / v v # v v / # / v # # ) ) ) ",
"{ { { { { v v v v v v v v / / # v v v # ) . 5 5 5 j #.3.3.3.4.# # v v v v v v v v v v v v v v v v v v v v v v v v v v v # # ) ) ",
"{ { { { [ [ v v v v v v v v v v v v v v [ [ . . . . . . . . . . . . v v v v v v v v v v v v v v v v v v v v v v v v v v v ) ) ) ",
"[ { { [ [ [ [ [ [ [ [ [ [ ) ) ) ) ) ) ) ) ) ) [ ) ) ) ) [ [ ) ) ) [ [ [ [ [ [ { { [ [ [ [ { { [ [ [ [ [ [ [ [ [ [ ) ) ) ) ) ) ) ",
"[ [ [ [ [ [ [ ) ) ) ) ) ) ) [ [ ) ) ) ) ) ) ) ) ) ) ) ) [ [ [ [ [ [ [ [ [ [ [ [ [ [ [ [ [ [ [ [ [ [ [ ) ) ) ) ) ) ) [ [ ) ) ) ) ",
"[ [ [ [ [ [ [ [ [ ) ) ) ) [ [ [ [ ) [ [ ) ) ) ) ) [ ) ) [ [ [ [ [ [ [ [ [ [ [ [ ) ) [ [ [ [ [ [ [ [ [ [ [ ) ) ) ) [ [ [ [ ) [ [ "
};
